<?xml version="1.0" encoding="utf-8"?>
<!-- Generator: Adobe Illustrator 16.0.0, SVG Export Plug-In . SVG Version: 6.00 Build 0)  -->
<!DOCTYPE svg PUBLIC "-//W3C//DTD SVG 1.1//EN" "http://www.w3.org/Graphics/SVG/1.1/DTD/svg11.dtd">
<svg version="1.1" id="Layer_1" xmlns="http://www.w3.org/2000/svg" xmlns:xlink="http://www.w3.org/1999/xlink" x="0px" y="0px"
	 width="50px" height="50px" viewBox="0 0 50 50" enable-background="new 0 0 50 50" xml:space="preserve">
<g>
	<path fill-rule="evenodd" clip-rule="evenodd" fill="none" d="M25,0.001c13.806,0,24.999,11.193,24.999,24.999
		c0,13.807-11.193,24.999-24.999,24.999C11.193,49.999,0.001,38.807,0.001,25C0.001,11.194,11.193,0.001,25,0.001L25,0.001z"/>
	<path fill="#4A3D70" d="M33.872,13.75H16.961c-1.082,0-1.96,0.892-1.96,1.986v18.528c0,1.095,0.879,1.985,1.96,1.985h16.911
		c1.081,0,1.96-0.89,1.96-1.985V15.736C35.832,14.641,34.953,13.75,33.872,13.75L33.872,13.75L33.872,13.75z M34.524,34.264
		c0,0.364-0.292,0.663-0.652,0.663H16.961c-0.36,0-0.652-0.298-0.652-0.663V15.736c0-0.366,0.292-0.663,0.652-0.663h16.911
		c0.36,0,0.652,0.297,0.652,0.663V34.264L34.524,34.264z"/>
	<path fill="#4A3D70" d="M21.756,27.787H19.14c-0.36,0-0.654-0.296-0.654-0.663v-2.646c0-0.366,0.294-0.663,0.654-0.663h2.616
		c0.36,0,0.654,0.296,0.654,0.663v2.646C22.41,27.491,22.116,27.787,21.756,27.787L21.756,27.787z M21.101,25.14h-1.307v1.324h1.307
		V25.14L21.101,25.14z M21.756,33.124H19.14c-0.36,0-0.654-0.295-0.654-0.661v-2.648c0-0.364,0.294-0.661,0.654-0.661h2.616
		c0.36,0,0.654,0.297,0.654,0.661v2.648C22.41,32.829,22.116,33.124,21.756,33.124L21.756,33.124z M21.101,30.478h-1.307v1.324
		h1.307V30.478L21.101,30.478z M27.094,27.787h-2.615c-0.36,0-0.652-0.296-0.652-0.663v-2.646c0-0.366,0.292-0.663,0.652-0.663
		h2.615c0.361,0,0.654,0.296,0.654,0.663v2.646C27.748,27.491,27.455,27.787,27.094,27.787L27.094,27.787z M26.441,25.14h-1.308
		v1.324h1.308V25.14L26.441,25.14z M27.094,33.124h-2.615c-0.36,0-0.652-0.295-0.652-0.661v-2.648c0-0.364,0.292-0.661,0.652-0.661
		h2.615c0.361,0,0.654,0.297,0.654,0.661v2.648C27.748,32.829,27.455,33.124,27.094,33.124L27.094,33.124z M26.441,30.478h-1.308
		v1.324h1.308V30.478L26.441,30.478z M32.434,33.124h-2.614c-0.363,0-0.655-0.295-0.655-0.661v-7.984
		c0-0.366,0.292-0.663,0.655-0.663h2.614c0.361,0,0.654,0.296,0.654,0.663v7.984C33.087,32.829,32.795,33.124,32.434,33.124
		L32.434,33.124z M31.779,25.14h-1.308v6.662h1.308V25.14L31.779,25.14z"/>
	<path opacity="0.2" fill-rule="evenodd" clip-rule="evenodd" fill="#A098B3" d="M25,0.001c13.807,0,25,11.193,25,24.999
		c0,13.807-11.193,24.999-25,24.999S0,38.807,0,25C0,11.194,11.193,0.001,25,0.001L25,0.001z"/>
	<path fill="#F3A344" d="M32.434,16.875L32.434,16.875H18.4c-0.362,0-0.654,0.297-0.654,0.663v3.956
		c0,0.366,0.292,0.663,0.654,0.663h14.034c0.361,0,0.654-0.297,0.654-0.663v-3.956C33.087,17.171,32.795,16.875,32.434,16.875
		 M31.779,20.832H19.054v-2.633h12.726V20.832"/>
</g>
</svg>
