<?xml version="1.0" encoding="utf-8"?>
<!-- Generator: Adobe Illustrator 16.0.0, SVG Export Plug-In . SVG Version: 6.00 Build 0)  -->
<!DOCTYPE svg PUBLIC "-//W3C//DTD SVG 1.1//EN" "http://www.w3.org/Graphics/SVG/1.1/DTD/svg11.dtd">
<svg version="1.1" id="Layer_1" xmlns="http://www.w3.org/2000/svg" xmlns:xlink="http://www.w3.org/1999/xlink" x="0px" y="0px"
	 width="50px" height="50px" viewBox="0 0 50 50" enable-background="new 0 0 50 50" xml:space="preserve">
<g>
	<path opacity="0.2" fill-rule="evenodd" clip-rule="evenodd" fill="#A098B3" d="M25,0.001c13.807,0,25,11.193,25,24.999
		c0,13.807-11.193,24.999-25,24.999S0,38.807,0,25C0,11.194,11.193,0.001,25,0.001L25,0.001z"/>
	<path fill="#4A3D70" d="M26.932,37.5h-3.449c-0.84,0-1.558-0.579-1.743-1.405l-0.437-1.951c-0.713-0.303-1.391-0.698-2.027-1.181
		l-1.889,0.598c-0.811,0.252-1.692-0.093-2.099-0.82l-1.72-2.987c-0.411-0.739-0.272-1.65,0.335-2.225l1.463-1.352
		C15.323,25.782,15.3,25.386,15.3,25s0.021-0.782,0.066-1.177l-1.457-1.346c-0.612-0.579-0.752-1.49-0.344-2.22l1.729-3.005
		c0.402-0.718,1.283-1.066,2.091-0.814l1.891,0.6c0.636-0.482,1.315-0.878,2.027-1.181l0.437-1.951
		c0.185-0.828,0.902-1.405,1.743-1.405h3.449c0.842,0,1.559,0.577,1.744,1.405l0.437,1.951c0.712,0.303,1.39,0.699,2.025,1.181
		l1.89-0.6c0.81-0.252,1.691,0.094,2.1,0.822l1.718,2.988c0.412,0.738,0.273,1.65-0.333,2.222l-1.464,1.354
		c0.045,0.395,0.067,0.791,0.067,1.177s-0.022,0.782-0.067,1.177l1.458,1.346c0.002,0.001,0.003,0.004,0.006,0.006
		c0.607,0.574,0.747,1.484,0.339,2.213l-1.729,3.006c-0.404,0.718-1.284,1.066-2.091,0.813l-1.893-0.6
		c-0.636,0.483-1.315,0.878-2.027,1.183l-0.437,1.951C28.491,36.921,27.774,37.5,26.932,37.5L26.932,37.5L26.932,37.5z
		 M19.437,31.313c0.179,0,0.354,0.062,0.495,0.176c0.71,0.589,1.489,1.042,2.31,1.349c0.247,0.091,0.431,0.301,0.49,0.56
		l0.528,2.355c0.023,0.106,0.118,0.185,0.226,0.185h3.449c0.106,0,0.201-0.079,0.226-0.185l0.527-2.354
		c0.059-0.259,0.243-0.469,0.49-0.562c0.821-0.306,1.6-0.76,2.31-1.347c0.203-0.169,0.476-0.224,0.729-0.143l2.281,0.724
		c0.107,0.034,0.225-0.004,0.275-0.097l1.729-3.005c0.053-0.093,0.034-0.219-0.051-0.3l-1.75-1.616
		c-0.191-0.178-0.281-0.435-0.242-0.693c0.068-0.458,0.104-0.917,0.104-1.361c0-0.445-0.034-0.902-0.104-1.361
		c-0.038-0.257,0.052-0.516,0.242-0.692l1.754-1.621c0.079-0.075,0.099-0.203,0.042-0.307l-1.719-2.986
		c-0.056-0.1-0.169-0.136-0.282-0.104l-2.28,0.721c-0.253,0.081-0.525,0.028-0.728-0.141c-0.711-0.589-1.488-1.042-2.311-1.347
		c-0.246-0.091-0.431-0.303-0.489-0.562l-0.528-2.355c-0.028-0.106-0.122-0.184-0.229-0.184h-3.449c-0.106,0-0.2,0.078-0.226,0.184
		l-0.528,2.356c-0.057,0.257-0.24,0.469-0.488,0.56c-0.822,0.307-1.6,0.76-2.311,1.347c-0.203,0.169-0.476,0.222-0.729,0.143
		L16.92,17.93c-0.107-0.032-0.224,0.004-0.274,0.097l-1.729,3.003c-0.053,0.094-0.033,0.222,0.052,0.301l1.749,1.616
		c0.192,0.176,0.282,0.435,0.243,0.692c-0.068,0.458-0.104,0.916-0.104,1.361c0,0.444,0.034,0.902,0.104,1.361
		c0.038,0.258-0.052,0.516-0.243,0.693l-1.753,1.619c-0.079,0.075-0.099,0.203-0.042,0.307l1.72,2.986
		c0.057,0.101,0.17,0.141,0.281,0.104l2.279-0.723C19.279,31.323,19.358,31.313,19.437,31.313L19.437,31.313L19.437,31.313z"/>
	<path fill="#F3A344" d="M26.743,21.79l-1.555,6.771c-0.083,0.363-0.403,0.607-0.757,0.607c-0.059,0-0.117-0.007-0.177-0.021
		c-0.417-0.097-0.679-0.516-0.582-0.936l1.555-6.771c0.097-0.422,0.52-0.681,0.934-0.586C26.578,20.949,26.84,21.369,26.743,21.79
		L26.743,21.79z M31.69,25.582L29.1,27.924c-0.15,0.135-0.336,0.2-0.522,0.2c-0.212,0-0.424-0.085-0.578-0.257
		c-0.288-0.32-0.261-0.814,0.058-1.104L30.007,25l-1.95-1.762c-0.318-0.29-0.346-0.783-0.058-1.105c0.289-0.32,0.78-0.345,1.1-0.059
		l2.591,2.343c0.163,0.15,0.257,0.362,0.257,0.582C31.948,25.222,31.854,25.432,31.69,25.582L31.69,25.582z M20.408,25l1.95,1.763
		c0.32,0.288,0.346,0.782,0.059,1.104c-0.154,0.172-0.367,0.257-0.579,0.257c-0.186,0-0.371-0.065-0.521-0.2l-2.591-2.342
		c-0.166-0.15-0.257-0.36-0.257-0.582c0-0.22,0.092-0.432,0.257-0.582l2.591-2.343c0.32-0.288,0.81-0.263,1.1,0.059
		c0.287,0.32,0.261,0.814-0.059,1.105L20.408,25L20.408,25z"/>
</g>
</svg>
