<?xml version="1.0" encoding="utf-8"?>
<!-- Generator: Adobe Illustrator 16.0.0, SVG Export Plug-In . SVG Version: 6.00 Build 0)  -->
<!DOCTYPE svg PUBLIC "-//W3C//DTD SVG 1.1//EN" "http://www.w3.org/Graphics/SVG/1.1/DTD/svg11.dtd">
<svg version="1.1" id="Layer_1" xmlns="http://www.w3.org/2000/svg" xmlns:xlink="http://www.w3.org/1999/xlink" x="0px" y="0px"
	 width="50px" height="50px" viewBox="0 0 50 50" enable-background="new 0 0 50 50" xml:space="preserve">
<g>
	<path opacity="0.2" fill-rule="evenodd" clip-rule="evenodd" fill="#A098B3" d="M25,0c13.808,0,25,11.194,25,25
		c0,13.808-11.192,25-25,25S0,38.808,0,25C0,11.194,11.192,0,25,0L25,0z"/>
	<path fill="#F3A344" d="M28.357,32.329h-6.555v-3.474h6.555V32.329z"/>
	<path fill="#4A3D70" d="M25.983,35.417c-0.279,0-0.505-0.234-0.505-0.521v-0.907c0-0.029-0.026-0.054-0.053-0.054H24.53
		c-0.028,0-0.053,0.026-0.053,0.054v0.907c0,0.287-0.226,0.521-0.507,0.521s-0.508-0.234-0.508-0.521v-0.907
		c0-0.604,0.48-1.096,1.068-1.096h0.895c0.588,0,1.069,0.492,1.069,1.096v0.907C26.494,35.183,26.266,35.417,25.983,35.417
		L25.983,35.417z M29.889,26.917l-1.343,1.57c0.329,0.239,0.532,0.631,0.532,1.051v1.624c0,0.5-0.285,0.954-0.721,1.166
		l-0.088,2.584c-0.009,0.283-0.232,0.503-0.509,0.503h-0.018c-0.279-0.011-0.499-0.252-0.49-0.539l0.082-2.423h-4.671l0.083,2.423
		c0.004,0.139-0.044,0.271-0.137,0.373c-0.094,0.102-0.219,0.161-0.354,0.166h-0.019c-0.275,0-0.497-0.221-0.507-0.503l-0.087-2.562
		c-0.463-0.201-0.766-0.664-0.766-1.188v-1.624c0-0.42,0.203-0.812,0.532-1.051l-1.342-1.57c-0.458-0.536-0.491-1.375-0.073-1.951
		l3.924-5.436c0.257-0.356,0.644-0.561,1.058-0.561c0.416,0,0.804,0.205,1.06,0.561l1.425,1.974
		c0.168,0.229,0.118,0.558-0.105,0.729c-0.088,0.066-0.194,0.102-0.303,0.102c-0.161,0-0.314-0.079-0.408-0.211l-0.411-0.57v1.929
		c0.391,0.362,0.613,0.875,0.613,1.417c0,1.057-0.84,1.916-1.87,1.916c-1.03,0-1.868-0.859-1.868-1.916
		c0-0.569,0.238-1.096,0.657-1.458v-1.949l-2.955,4.094c-0.135,0.185-0.125,0.473,0.021,0.644l1.724,2.018h4.844l1.723-2.018
		c0.146-0.17,0.155-0.458,0.021-0.644l-1.648-2.284c-0.165-0.23-0.118-0.558,0.105-0.729c0.091-0.067,0.193-0.102,0.303-0.102
		c0.161,0,0.314,0.08,0.411,0.211l1.648,2.284C30.377,25.542,30.348,26.381,29.889,26.917L29.889,26.917z M24.977,25.774
		c0.472,0,0.854-0.392,0.854-0.874c0-0.294-0.144-0.567-0.385-0.729c-0.144-0.097-0.23-0.26-0.23-0.436v-3.59
		c-0.046-0.063-0.125-0.135-0.238-0.135c-0.082,0-0.148,0.042-0.192,0.086v3.61c0,0.182-0.096,0.353-0.247,0.447
		c-0.257,0.159-0.411,0.439-0.411,0.747C24.126,25.383,24.508,25.774,24.977,25.774L24.977,25.774z M28.061,29.539
		c0-0.138-0.108-0.249-0.243-0.249h-5.68c-0.135,0-0.244,0.111-0.244,0.249v1.624c0,0.138,0.108,0.25,0.244,0.25h5.68
		c0.135,0,0.243-0.112,0.243-0.25V29.539L28.061,29.539z M18.551,22.765c0.583,0.22,0.98,0.795,0.98,1.442
		c0,0.85-0.673,1.539-1.5,1.539s-1.501-0.689-1.501-1.539c0-0.658,0.407-1.238,1.005-1.452c0.063-1.178,0.393-2.335,0.957-3.356
		c0.091-0.163,0.26-0.264,0.442-0.264c0.089,0,0.175,0.023,0.253,0.067c0.242,0.142,0.329,0.46,0.189,0.71
		C18.896,20.78,18.613,21.762,18.551,22.765L18.551,22.765z M18.031,23.71c-0.267,0-0.485,0.224-0.485,0.497
		c0,0.273,0.218,0.497,0.485,0.497c0.266,0,0.483-0.224,0.483-0.497C18.514,23.934,18.297,23.71,18.031,23.71L18.031,23.71z
		 M35.578,17.479h-1.066c-0.485,0-0.879-0.404-0.879-0.9v-0.026h-4.869c0.967,0.578,1.798,1.377,2.43,2.337
		c0.759,1.151,1.196,2.485,1.272,3.865c0.597,0.214,1.005,0.793,1.005,1.452c0,0.85-0.676,1.539-1.501,1.539
		c-0.829,0-1.502-0.689-1.502-1.539c0-0.647,0.396-1.222,0.981-1.442c-0.18-2.92-2.269-5.423-5.046-6.055
		c-0.062,0.435-0.429,0.77-0.87,0.77h-1.068c-0.441,0-0.808-0.335-0.87-0.77c-1.325,0.303-2.543,1.041-3.447,2.092
		c-0.097,0.113-0.235,0.177-0.382,0.177c-0.124,0-0.242-0.046-0.336-0.13c-0.102-0.091-0.162-0.219-0.17-0.358
		c-0.009-0.139,0.037-0.272,0.126-0.377c0.536-0.625,1.155-1.147,1.847-1.561h-4.866v0.026c0,0.497-0.394,0.9-0.879,0.9h-1.068
		c-0.483,0-0.878-0.404-0.878-0.9v-1.096c0-0.497,0.395-0.9,0.878-0.9h1.068c0.485,0,0.879,0.403,0.879,0.9v0.027h7.22v-0.027
		c0-0.497,0.394-0.9,0.879-0.9h1.068c0.485,0,0.878,0.403,0.878,0.9v0.027h7.221v-0.027c0-0.497,0.394-0.9,0.879-0.9h1.066
		c0.485,0,0.882,0.403,0.882,0.9v1.096C36.46,17.076,36.063,17.479,35.578,17.479L35.578,17.479z M31.97,24.704
		c0.267,0,0.481-0.224,0.481-0.497c0-0.273-0.215-0.497-0.481-0.497c-0.268,0-0.485,0.224-0.485,0.497
		C31.484,24.48,31.702,24.704,31.97,24.704L31.97,24.704z M15.351,15.625h-0.793v0.812h0.793V15.625L15.351,15.625z M25.396,15.625
		h-0.792v0.812h0.792V15.625L25.396,15.625z M35.44,15.625h-0.791v0.812h0.791V15.625L35.44,15.625z"/>
</g>
</svg>
