<?xml version="1.0" encoding="utf-8"?>
<!-- Generator: Adobe Illustrator 16.0.0, SVG Export Plug-In . SVG Version: 6.00 Build 0)  -->
<!DOCTYPE svg PUBLIC "-//W3C//DTD SVG 1.1//EN" "http://www.w3.org/Graphics/SVG/1.1/DTD/svg11.dtd">
<svg version="1.1" id="Layer_1" xmlns="http://www.w3.org/2000/svg" xmlns:xlink="http://www.w3.org/1999/xlink" x="0px" y="0px"
	 width="50px" height="50px" viewBox="0 0 50 50" enable-background="new 0 0 50 50" xml:space="preserve">
<g>
	<path opacity="0.2" fill-rule="evenodd" clip-rule="evenodd" fill="#A098B3" d="M25,0c13.808,0,25,11.194,25,25
		c0,13.808-11.192,25-25,25S0,38.808,0,25C0,11.194,11.192,0,25,0L25,0z"/>
	<path fill="#4A3D70" d="M32.922,14.37H18.401c-0.344,0-0.62,0.279-0.62,0.623v2.741h-0.7c-0.344,0-0.619,0.279-0.619,0.623
		c0,0.344,0.275,0.623,0.619,0.623h0.7v2.077h-0.7c-0.344,0-0.619,0.278-0.619,0.623c0,0.344,0.275,0.623,0.619,0.623h0.7v2.077
		h-0.7c-0.344,0-0.619,0.278-0.619,0.623c0,0.344,0.275,0.621,0.619,0.621h0.7v2.077h-0.7c-0.344,0-0.619,0.279-0.619,0.623
		c0,0.345,0.275,0.623,0.619,0.623h0.7v2.077h-0.7c-0.344,0-0.619,0.279-0.619,0.623c0,0.345,0.275,0.623,0.619,0.623h0.7v2.741
		c0,0.344,0.276,0.623,0.62,0.623h14.521c0.341,0,0.616-0.279,0.616-0.623V14.993C33.538,14.649,33.263,14.37,32.922,14.37
		L32.922,14.37L32.922,14.37z M32.302,34.384H19.019v-2.118h0.702c0.341,0,0.617-0.278,0.617-0.623c0-0.344-0.276-0.623-0.617-0.623
		h-0.702v-2.077h0.702c0.341,0,0.617-0.278,0.617-0.623c0-0.344-0.276-0.623-0.617-0.623h-0.702v-2.077h0.702
		c0.341,0,0.617-0.277,0.617-0.621c0-0.345-0.276-0.623-0.617-0.623h-0.702v-2.077h0.702c0.341,0,0.617-0.279,0.617-0.623
		c0-0.345-0.276-0.623-0.617-0.623h-0.702v-2.077h0.702c0.341,0,0.617-0.279,0.617-0.623c0-0.343-0.276-0.623-0.617-0.623h-0.702
		v-2.118h13.283V34.384L32.302,34.384z"/>
	<path fill="#F3A344" d="M22.081,29.32c0,0.342,0.276,0.622,0.617,0.622c0.344,0,0.62-0.279,0.62-0.622
		c0-1.654,1.002-3.365,2.684-3.365c1.678,0,2.68,1.71,2.68,3.365c0,0.342,0.276,0.622,0.617,0.622c0.344,0,0.62-0.279,0.62-0.622
		c0-1.584-0.717-3.224-2.031-4.06c0.635-0.542,1.041-1.351,1.041-2.253c0-1.625-1.313-2.949-2.927-2.949
		c-1.617,0-2.931,1.324-2.931,2.949c0,0.902,0.406,1.71,1.041,2.253C22.798,26.096,22.081,27.736,22.081,29.32L22.081,29.32
		L22.081,29.32z M24.309,23.007c0-0.939,0.759-1.703,1.693-1.703c0.931,0,1.689,0.764,1.689,1.703s-0.759,1.703-1.689,1.703
		C25.067,24.71,24.309,23.946,24.309,23.007L24.309,23.007L24.309,23.007z"/>
</g>
</svg>
