<?xml version="1.0" encoding="utf-8"?>
<!-- Generator: Adobe Illustrator 16.0.0, SVG Export Plug-In . SVG Version: 6.00 Build 0)  -->
<!DOCTYPE svg PUBLIC "-//W3C//DTD SVG 1.1//EN" "http://www.w3.org/Graphics/SVG/1.1/DTD/svg11.dtd">
<svg version="1.1" id="Layer_1" xmlns="http://www.w3.org/2000/svg" xmlns:xlink="http://www.w3.org/1999/xlink" x="0px" y="0px"
	 width="50px" height="50px" viewBox="0 0 50 50" enable-background="new 0 0 50 50" xml:space="preserve">
<path fill="#4A3D70" d="M25.003,27.906c-6.464,0-11.705-9.191-11.705-15.849C13.298,5.395,18.539,0,25.003,0
	s11.699,5.395,11.699,12.058C36.702,18.715,31.467,27.906,25.003,27.906L25.003,27.906z M25.003,50
	C13.039,50,3.344,45.035,3.344,38.918c0-4.508,5.265-11.13,12.811-14.303c2.361,3.126,5.459,5.336,8.849,5.336
	c3.384,0,6.481-2.21,8.843-5.336c7.552,3.173,12.811,9.795,12.811,14.303C46.656,45.035,36.961,50,25.003,50L25.003,50z"/>
</svg>
