<svg width="67" height="67" viewBox="0 0 67 67" fill="none" xmlns="http://www.w3.org/2000/svg">
<path d="M33.4998 0C26.967 0.000918503 20.5771 1.91197 15.1165 5.49793C9.65585 9.08389 5.36292 14.1883 2.76608 20.1827C0.169237 26.1772 -0.61818 32.8002 0.500747 39.2364C1.61967 45.6727 4.59611 51.6413 9.0637 56.4076L0.317991 65.1533C0.166952 65.3038 0.0637901 65.4956 0.0214879 65.7045C-0.0208144 65.9135 -0.000366907 66.1303 0.0802572 66.3276C0.16259 66.5255 0.301559 66.6947 0.479714 66.8139C0.657868 66.9331 0.867267 66.997 1.08162 66.9976H33.4998C42.3842 66.9976 50.9048 63.4683 57.187 57.186C63.4693 50.9038 66.9986 42.3832 66.9986 33.4988C66.9986 24.6144 63.4693 16.0938 57.187 9.81157C50.9048 3.52933 42.3842 0 33.4998 0V0ZM33.4998 64.8364H3.68948L11.3402 57.1857C11.4412 57.0858 11.5215 56.9669 11.5762 56.8358C11.631 56.7048 11.6592 56.5641 11.6592 56.422C11.6592 56.28 11.631 56.1393 11.5762 56.0083C11.5215 55.8772 11.4412 55.7583 11.3402 55.6584C6.21344 50.532 3.02283 43.7865 2.31198 36.5713C1.60114 29.3562 3.41404 22.1177 7.44179 16.0894C11.4695 10.061 17.4629 5.61571 24.4008 3.51089C31.3386 1.40607 38.7917 1.77197 45.49 4.54624C52.1883 7.32051 57.7174 12.3315 61.1353 18.7254C64.5532 25.1193 65.6484 32.5005 64.2342 39.6113C62.8201 46.7222 58.9841 53.1227 53.3798 57.7223C47.7756 62.3219 40.7499 64.8361 33.4998 64.8364V64.8364Z" fill="#382E60"/>
<path d="M33.4998 20.5315C34.2792 20.5315 35.0411 20.3004 35.6891 19.8674C36.3371 19.4344 36.8422 18.819 37.1405 18.0989C37.4387 17.3789 37.5168 16.5865 37.3647 15.8221C37.2127 15.0577 36.8373 14.3556 36.2862 13.8045C35.7351 13.2534 35.033 12.8781 34.2686 12.726C33.5042 12.574 32.7119 12.652 31.9918 12.9503C31.2718 13.2485 30.6563 13.7536 30.2233 14.4016C29.7903 15.0497 29.5592 15.8115 29.5592 16.5909C29.5592 17.636 29.9744 18.6383 30.7134 19.3773C31.4524 20.1164 32.4547 20.5315 33.4998 20.5315ZM33.4998 14.8115C33.8517 14.8115 34.1958 14.9159 34.4884 15.1114C34.781 15.3069 35.0091 15.5848 35.1438 15.91C35.2784 16.2351 35.3137 16.5929 35.245 16.9381C35.1764 17.2832 35.0069 17.6003 34.758 17.8491C34.5092 18.098 34.1921 18.2675 33.847 18.3361C33.5018 18.4048 33.144 18.3695 32.8189 18.2349C32.4937 18.1002 32.2158 17.8721 32.0203 17.5795C31.8248 17.2869 31.7204 16.9428 31.7204 16.5909C31.7298 16.1246 31.9212 15.6804 32.2537 15.3533C32.5862 15.0262 33.0334 14.8421 33.4998 14.8403V14.8115ZM39.5368 46.4661H37.4404V25.6608C37.4404 24.6157 37.0253 23.6134 36.2862 22.8744C35.5472 22.1354 34.5449 21.7202 33.4998 21.7202H28.7812C27.7361 21.7202 26.7337 22.1354 25.9947 22.8744C25.2557 23.6134 24.8406 24.6157 24.8406 25.6608C24.8406 26.7059 25.2557 27.7082 25.9947 28.4472C26.7337 29.1862 27.7361 29.6014 28.7812 29.6014H29.5592V46.4661H27.4628C26.9453 46.4661 26.4329 46.568 25.9548 46.766C25.4767 46.9641 25.0423 47.2543 24.6764 47.6203C24.3105 47.9862 24.0202 48.4206 23.8222 48.8987C23.6241 49.3768 23.5222 49.8892 23.5222 50.4067C23.5222 50.9242 23.6241 51.4366 23.8222 51.9147C24.0202 52.3928 24.3105 52.8272 24.6764 53.1931C25.0423 53.559 25.4767 53.8493 25.9548 54.0473C26.4329 54.2454 26.9453 54.3473 27.4628 54.3473H39.5368C40.0543 54.3473 40.5667 54.2454 41.0448 54.0473C41.5229 53.8493 41.9573 53.559 42.3232 53.1931C42.6892 52.8272 42.9794 52.3928 43.1774 51.9147C43.3755 51.4366 43.4774 50.9242 43.4774 50.4067C43.4774 49.8892 43.3755 49.3768 43.1774 48.8987C42.9794 48.4206 42.6892 47.9862 42.3232 47.6203C41.9573 47.2543 41.5229 46.9641 41.0448 46.766C40.5667 46.568 40.0543 46.4661 39.5368 46.4661ZM39.5368 52.1861H27.4628C26.9909 52.1861 26.5383 51.9986 26.2046 51.6649C25.8709 51.3312 25.6834 50.8786 25.6834 50.4067C25.6834 49.9348 25.8709 49.4822 26.2046 49.1485C26.5383 48.8148 26.9909 48.6273 27.4628 48.6273H30.6182C30.9048 48.6273 31.1796 48.5134 31.3823 48.3108C31.585 48.1081 31.6988 47.8333 31.6988 47.5467V28.5208C31.6988 28.2342 31.585 27.9594 31.3823 27.7567C31.1796 27.554 30.9048 27.4402 30.6182 27.4402H28.7812C28.3092 27.4402 27.8566 27.2527 27.5229 26.919C27.1892 26.5853 27.0018 26.1327 27.0018 25.6608C27.0018 25.1889 27.1892 24.7363 27.5229 24.4026C27.8566 24.0689 28.3092 23.8814 28.7812 23.8814H33.4998C33.9712 23.8833 34.4227 24.0714 34.7559 24.4047C35.0892 24.738 35.2773 25.1895 35.2792 25.6608V47.5179C35.2753 47.664 35.3011 47.8094 35.355 47.9453C35.4089 48.0812 35.4898 48.2048 35.5928 48.3085C35.6959 48.4122 35.8189 48.494 35.9545 48.5488C36.09 48.6035 36.2353 48.6303 36.3814 48.6273H39.5584C40.0303 48.6273 40.4829 48.8148 40.8166 49.1485C41.1503 49.4822 41.3378 49.9348 41.3378 50.4067C41.3378 50.8786 41.1503 51.3312 40.8166 51.6649C40.4829 51.9986 40.0303 52.1861 39.5584 52.1861H39.5368Z" fill="#382E60"/>
</svg>
