<?xml version="1.0" encoding="utf-8"?>
<!-- Generator: Adobe Illustrator 25.0.0, SVG Export Plug-In . SVG Version: 6.00 Build 0)  -->
<svg version="1.1" id="Layer_1" xmlns="http://www.w3.org/2000/svg" xmlns:xlink="http://www.w3.org/1999/xlink" x="0px" y="0px"
	 width="50px" height="50px" viewBox="0 0 50 50" enable-background="new 0 0 50 50" xml:space="preserve">
<g>
	<path fill-rule="evenodd" clip-rule="evenodd" fill="#FFFFFF" d="M46.998,21.496c-0.205-0.034-0.412-0.049-0.62-0.045H11.103
		l0.769-0.358c0.752-0.356,1.436-0.84,2.022-1.43l9.892-9.892c1.303-1.243,1.522-3.242,0.52-4.738
		c-1.168-1.595-3.407-1.941-5.002-0.773c0,0,0,0,0,0c-0.129,0.094-0.252,0.197-0.366,0.308L1.048,22.448
		c-1.397,1.396-1.397,3.66-0.002,5.057c0.001,0,0.001,0.001,0.002,0.002l0,0l17.888,17.882c1.399,1.395,3.664,1.391,5.059-0.008
		c0.11-0.11,0.212-0.227,0.307-0.35c1.003-1.495,0.783-3.495-0.519-4.738l-9.874-9.907c-0.525-0.525-1.129-0.965-1.789-1.305
		l-1.073-0.482h35.133c1.828,0.068,3.431-1.209,3.775-3.005C50.267,23.646,48.945,21.812,46.998,21.496z"/>
</g>
</svg>
