<?xml version="1.0" encoding="utf-8"?>
<!-- Generator: Adobe Illustrator 16.0.0, SVG Export Plug-In . SVG Version: 6.00 Build 0)  -->
<!DOCTYPE svg PUBLIC "-//W3C//DTD SVG 1.1//EN" "http://www.w3.org/Graphics/SVG/1.1/DTD/svg11.dtd">
<svg version="1.1" id="Layer_1" xmlns="http://www.w3.org/2000/svg" xmlns:xlink="http://www.w3.org/1999/xlink" x="0px" y="0px"
	 width="50px" height="50px" viewBox="0 0 50 50" enable-background="new 0 0 50 50" xml:space="preserve">
<path fill="#4A3D70" d="M49.963,8.688l-4.325,18.999c-0.147,0.649-0.735,1.114-1.411,1.114H15.275l1.11,4.751h27.747
	c0.799,0,1.445,0.635,1.445,1.422s-0.646,1.425-1.445,1.425H15.234c-0.67,0-1.252-0.458-1.405-1.105L6.548,4.101H1.446
	C0.646,4.101,0,3.463,0,2.672C0,1.888,0.646,1.25,1.446,1.25h6.247c0.67,0,1.252,0.458,1.405,1.105l1.075,4.596h38.385
	c0.44,0,0.852,0.197,1.122,0.532C49.957,7.821,50.063,8.265,49.963,8.688L49.963,8.688z M10.838,9.798l3.773,16.151h28.464
	l3.679-16.151H10.838L10.838,9.798z M21.152,48.75c-2.915,0-5.283-2.345-5.283-5.225c0-2.883,2.368-5.228,5.283-5.228
	c2.921,0,5.29,2.345,5.29,5.228C26.442,46.405,24.073,48.75,21.152,48.75L21.152,48.75z M21.152,41.151
	c-1.322,0-2.403,1.063-2.403,2.374c0,1.308,1.081,2.372,2.403,2.372c1.328,0,2.404-1.063,2.404-2.372
	C23.557,42.214,22.48,41.151,21.152,41.151L21.152,41.151z M38.461,48.75c-2.915,0-5.289-2.345-5.289-5.225
	c0-2.883,2.374-5.228,5.289-5.228s5.29,2.345,5.29,5.228C43.751,46.405,41.376,48.75,38.461,48.75L38.461,48.75z M38.461,41.151
	c-1.322,0-2.403,1.063-2.403,2.374c0,1.308,1.081,2.372,2.403,2.372s2.404-1.063,2.404-2.372
	C40.865,42.214,39.783,41.151,38.461,41.151L38.461,41.151z"/>
</svg>
