<?xml version="1.0" encoding="utf-8"?>
<!-- Generator: Adobe Illustrator 25.0.0, SVG Export Plug-In . SVG Version: 6.00 Build 0)  -->
<svg version="1.1" id="Layer_1" xmlns="http://www.w3.org/2000/svg" xmlns:xlink="http://www.w3.org/1999/xlink" x="0px" y="0px"
	 width="50px" height="50px" viewBox="0 0 50 50" enable-background="new 0 0 50 50" xml:space="preserve">
<g>
	<path fill-rule="evenodd" clip-rule="evenodd" fill="#FFFFFF" d="M24.999,39.171c-0.927,0.001-1.817-0.365-2.475-1.019
		L1.027,16.775c-1.36-1.348-1.37-3.544-0.022-4.904c0.007-0.007,0.014-0.015,0.022-0.022c1.371-1.36,3.581-1.36,4.952,0
		l19.021,18.916l19.022-18.916c1.371-1.358,3.58-1.358,4.951,0c1.36,1.346,1.372,3.541,0.025,4.901
		c-0.008,0.008-0.017,0.017-0.025,0.025L27.475,38.154C26.817,38.807,25.927,39.173,24.999,39.171z"/>
</g>
</svg>
