<svg width="67" height="67" viewBox="0 0 67 67" fill="none" xmlns="http://www.w3.org/2000/svg">
<path d="M33.5 0C15.0221 0 0 15.0221 0 33.5C0 51.9779 15.0221 67 33.5 67C51.9779 67 67 51.9779 67 33.5C67 15.0221 51.9779 0 33.5 0ZM22.1453 27.5758C22.4979 26.8705 23.2032 26.3768 23.9789 26.3768H28.5632V13.7526C28.5632 12.6242 29.48 11.7779 30.5379 11.7779H36.3916C37.52 11.7779 38.3663 12.6947 38.3663 13.7526V26.4474H42.9505C43.7263 26.4474 44.4316 26.9411 44.7842 27.6463C45.0663 28.3516 44.9253 29.1979 44.4316 29.8326L34.9811 39.9884C34.2053 40.7642 32.7947 40.7642 32.0895 39.9884L22.4979 29.7621C21.9337 29.1979 21.7926 28.3516 22.1453 27.5758ZM49.5095 48.8042C49.5095 50.3558 48.24 51.6253 46.6884 51.6253H20.3116C18.76 51.6253 17.4905 50.3558 17.4905 48.8042V42.88C17.4905 41.3284 18.76 40.0589 20.3116 40.0589C21.8632 40.0589 23.1326 41.3284 23.1326 42.88V46.0537H44.0084V42.88C44.0084 41.3284 45.2779 40.0589 46.8295 40.0589C48.3811 40.0589 49.6505 41.3284 49.6505 42.88V48.8042H49.5095Z" fill="#382E60"/>
</svg>
