<svg width="48" height="60" viewBox="0 0 48 60" fill="none" xmlns="http://www.w3.org/2000/svg">
<path d="M17.5454 40.6495C21.8644 40.3014 26.2033 40.3014 30.5223 40.6495C32.8742 40.7866 35.215 41.0808 37.5298 41.5303C42.5389 42.5445 45.809 44.1993 47.2105 46.8683C48.2631 48.9514 48.2631 51.4312 47.2105 53.5142C45.809 56.1833 42.6686 57.9448 37.4779 58.8523C35.1649 59.3187 32.8236 59.6219 30.4704 59.7598C28.2903 60 26.1101 60 23.9041 60H19.9331C19.1026 59.8932 18.2981 59.8399 17.5194 59.8399C15.1661 59.7188 12.8243 59.4245 10.5119 58.9591C5.50284 57.9982 2.23267 56.29 0.831165 53.621C0.290134 52.5871 0.00490225 51.4321 0.000312653 50.258C-0.0106329 49.0767 0.265972 47.9114 0.805211 46.8683C2.18076 44.1993 5.45094 42.4644 10.5119 41.5303C12.8345 41.0744 15.1843 40.7801 17.5454 40.6495ZM24.0079 0C32.7085 0 39.7618 7.25346 39.7618 16.2011C39.7618 25.1487 32.7085 32.4021 24.0079 32.4021C15.3072 32.4021 8.25394 25.1487 8.25394 16.2011C8.25394 7.25346 15.3072 0 24.0079 0Z" fill="#382E60"/>
</svg>
