<svg width="63" height="63" viewBox="0 0 63 63" fill="none" xmlns="http://www.w3.org/2000/svg">
<path d="M28.1313 8.1593H7.80696C6.26686 8.1593 4.78983 8.7711 3.70082 9.86012C2.6118 10.9491 2 12.4262 2 13.9663V54.615C2 56.1551 2.6118 57.6321 3.70082 58.7211C4.78983 59.8101 6.26686 60.4219 7.80696 60.4219H48.4557C49.9958 60.4219 51.4728 59.8101 52.5618 58.7211C53.6508 57.6321 54.2626 56.1551 54.2626 54.615V34.2906" stroke="white" stroke-width="4" stroke-linecap="round" stroke-linejoin="round"/>
<path d="M49.9074 3.80399C51.0625 2.64891 52.6291 2 54.2626 2C55.8962 2 57.4628 2.64891 58.6179 3.80399C59.7729 4.95907 60.4219 6.52568 60.4219 8.15921C60.4219 9.79273 59.7729 11.3594 58.6179 12.5144L31.0348 40.0975L19.4209 43.001L22.3244 31.387L49.9074 3.80399Z" stroke="white" stroke-width="4" stroke-linecap="round" stroke-linejoin="round"/>
</svg>
