<?xml version="1.0" encoding="utf-8"?>
<!-- Generator: Adobe Illustrator 25.0.0, SVG Export Plug-In . SVG Version: 6.00 Build 0)  -->
<svg version="1.1" id="Layer_1" xmlns="http://www.w3.org/2000/svg" xmlns:xlink="http://www.w3.org/1999/xlink" x="0px" y="0px"
	 width="50px" height="50px" viewBox="0 0 50 50" enable-background="new 0 0 50 50" xml:space="preserve">
<path id="Forma_1" fill-rule="evenodd" clip-rule="evenodd" fill="#9553A0" d="M45.686,5.957H4.475
	C2.049,5.961,0.084,7.926,0.08,10.352v29.298c0.004,2.425,1.97,4.39,4.395,4.394h41.211c2.425-0.004,4.39-1.969,4.394-4.394V10.352
	C50.076,7.927,48.111,5.962,45.686,5.957z M45.079,8.887L25.173,28.791L5.096,8.885h39.983V8.887z M3.01,39.042V10.944
	l14.109,13.989L3.01,39.042z M5.081,41.114L19.2,26.995l4.947,4.904c0.571,0.569,1.495,0.569,2.067,0l4.825-4.823l14.04,14.04H5.085
	L5.081,41.114z M47.151,39.042l-14.04-14.04l14.04-14.04V39.042z"/>
</svg>
