<?xml version="1.0" encoding="utf-8"?>
<!-- Generator: Adobe Illustrator 25.0.0, SVG Export Plug-In . SVG Version: 6.00 Build 0)  -->
<svg version="1.1" id="Layer_1" xmlns="http://www.w3.org/2000/svg" xmlns:xlink="http://www.w3.org/1999/xlink" x="0px" y="0px"
	 width="50px" height="47.183px" viewBox="0 0 50 47.183" enable-background="new 0 0 50 47.183" xml:space="preserve">
<g>
	<path id="Shape" fill="#F5A623" d="M6.598,22.891c1.205-0.996,3.685-4.555-0.189-3.928c-1.687,0.258-4.167,1.899-4.666,3.78
		c-0.261-0.503-0.548-0.989-0.861-1.457c-0.465-0.646-0.999-0.148-0.482,0.516c1.464,1.899,2.48,4.186,2.48,6.491
		c0.121-1.143-0.069-2.545-0.517-3.909c0.224,0.074,0.465,0.111,0.689,0.111c0.792,1.291,1.997,2.397,3.358,2.913
		c1.24,0.498,2.893,0.203,2.221-1.788C8.268,24.532,7.425,23.573,6.598,22.891z M6.77,19.424c2.152-0.24-0.155,2.434-0.913,2.932
		c-0.706-0.461-1.584-0.867-2.445-0.756C4.032,20.807,5.531,19.572,6.77,19.424z M3.395,22.19c0.585-0.055,1.222,0.277,1.705,0.608
		c-0.465,0.24-0.982,0.387-1.515,0.424C2.793,23.223,2.638,22.264,3.395,22.19z M6.374,26.357c-1.016-0.295-1.963-1.106-2.652-1.936
		c0.568-0.111,1.119-0.332,1.636-0.645c0.189-0.092,0.379-0.221,0.551-0.35c0.603,0.553,1.222,1.291,1.464,2.121
		C7.614,26.45,6.96,26.523,6.374,26.357z"/>
	<g id="flutterwave" transform="translate(296.324896, 38.912798)">
		<g id="Shape_1_">
			<path d="M-281.48-18.276h-2.947c-0.098,0-0.176,0.083-0.176,0.188h-0.02v4.612c0,0.104,0.078,0.188,0.176,0.188
				c0.098,0,0.176-0.084,0.195-0.188v-2.087h2.498c0.098,0,0.156-0.084,0.156-0.167c0-0.104-0.078-0.167-0.156-0.167h-2.518v-2.024
				h2.791c0.098,0,0.156-0.084,0.156-0.167C-281.324-18.144-281.376-18.206-281.48-18.276z M-280.133-18.526h-0.019
				c-0.078,0-0.137,0.083-0.137,0.167v4.862c0,0.104,0.078,0.167,0.156,0.167c0.098,0,0.156-0.084,0.156-0.167v-4.842
				C-279.977-18.443-280.036-18.526-280.133-18.526z M-275.878-16.773c0-0.104-0.078-0.167-0.156-0.167
				c-0.097,0-0.156,0.084-0.156,0.167v2.024c0,0.689-0.527,1.231-1.171,1.21c-0.683,0-1.073-0.48-1.073-1.231v-2.003
				c0-0.104-0.078-0.167-0.156-0.167s-0.156,0.084-0.156,0.167v2.066c0,0.855,0.507,1.481,1.347,1.481
				c0.508,0.021,0.995-0.271,1.23-0.751v0.522c0,0.104,0.078,0.167,0.156,0.167c0.098,0,0.156-0.084,0.156-0.167h-0.02V-16.773z
				 M-273.068-16.606c0.078,0,0.156-0.063,0.156-0.146c0-0.084-0.078-0.167-0.156-0.167h-1.074v-1.002
				c0-0.084-0.078-0.167-0.156-0.167h-0.019c-0.078,0-0.137,0.084-0.137,0.167v1.002h-0.371c-0.078,0-0.156,0.063-0.156,0.146
				c0,0.084,0.078,0.167,0.156,0.167h0.371v2.358c0,0.668,0.429,0.981,0.937,0.981c0.156,0,0.332-0.021,0.488-0.084
				c0.059-0.021,0.098-0.084,0.098-0.146c0-0.084-0.059-0.146-0.137-0.146c-0.117,0.042-0.254,0.063-0.39,0.063
				c-0.41,0-0.683-0.188-0.683-0.71v-2.316L-273.068-16.606L-273.068-16.606z M-270.413-16.606c0.078,0,0.156-0.063,0.156-0.146
				c0-0.084-0.078-0.167-0.156-0.167h-1.074v-1.002c0-0.084-0.078-0.167-0.156-0.167h-0.019c-0.078,0-0.137,0.084-0.137,0.167v1.002
				h-0.371c-0.078,0-0.156,0.063-0.156,0.146c0,0.084,0.078,0.167,0.156,0.167h0.371v2.358c0,0.668,0.429,0.981,0.937,0.981
				c0.156,0,0.332-0.021,0.488-0.084c0.058-0.021,0.098-0.084,0.098-0.146c0-0.084-0.058-0.146-0.136-0.146
				c-0.117,0.042-0.254,0.063-0.391,0.063c-0.41,0-0.683-0.188-0.683-0.71v-2.316L-270.413-16.606L-270.413-16.606z
				 M-268.071-17.024c-0.918,0-1.601,0.835-1.601,1.899v0.021c0,1.148,0.761,1.899,1.659,1.899c0.488,0.021,0.976-0.188,1.308-0.584
				c0.039-0.041,0.059-0.083,0.059-0.125c0-0.084-0.078-0.167-0.156-0.167c-0.039,0-0.078,0.021-0.098,0.042
				c-0.273,0.313-0.683,0.501-1.093,0.501c-0.664,0-1.269-0.522-1.327-1.419h2.655c0.078,0,0.156-0.083,0.156-0.167
				C-266.51-16.189-267.115-17.024-268.071-17.024z M-269.34-15.292c0.059-0.793,0.586-1.398,1.249-1.398
				c0.761,0,1.171,0.668,1.21,1.398H-269.34z M-263.894-16.961c-0.605,0.042-1.132,0.48-1.347,1.085v-0.876
				c0-0.084-0.078-0.167-0.156-0.167c-0.097,0-0.156,0.063-0.176,0.167v3.339c0,0.084,0.078,0.167,0.156,0.167
				c0.097,0,0.156-0.063,0.175-0.167v-1.335c0-1.169,0.625-1.732,1.347-1.816h0.019c0.098,0,0.156-0.104,0.156-0.188
				C-263.719-16.878-263.797-16.961-263.894-16.961z"/>
		</g>
		<g id="wave">
			<path d="M-258.132-17.154c-0.235,0-0.43,0.167-0.489,0.416l-0.567,1.935l-0.567-1.935c-0.059-0.25-0.274-0.437-0.528-0.437
				h-0.059c-0.254,0-0.469,0.167-0.528,0.437l-0.567,1.915l-0.547-1.935c-0.059-0.229-0.254-0.416-0.489-0.416h-0.019
				c-0.254,0-0.45,0.229-0.45,0.499c0,0.083,0.019,0.166,0.039,0.25l0.879,2.684c0.059,0.271,0.274,0.458,0.547,0.479h0.039
				c0.254,0,0.469-0.187,0.547-0.458l0.567-1.914l0.567,1.914c0.058,0.271,0.293,0.458,0.547,0.458h0.039
				c0.274,0,0.509-0.187,0.567-0.479l0.88-2.705c0.019-0.062,0.039-0.146,0.039-0.208v-0.021
				C-257.682-16.945-257.878-17.154-258.132-17.154z M-255.63-17.154c-0.391-0.021-0.762,0.063-1.134,0.187
				c-0.156,0.062-0.254,0.229-0.254,0.416c0,0.25,0.195,0.437,0.43,0.416c0.039,0,0.098,0,0.137-0.021
				c0.235-0.083,0.469-0.104,0.704-0.104c0.509,0,0.763,0.229,0.763,0.687v0.062c-0.274-0.104-0.567-0.146-0.86-0.146
				c-0.841,0-1.427,0.396-1.427,1.228c0,0.749,0.567,1.165,1.212,1.165c0.411,0.021,0.801-0.167,1.075-0.479
				c0.02,0.271,0.234,0.458,0.489,0.458c0.274,0,0.489-0.229,0.489-0.52v-1.706c0.019-0.437-0.117-0.874-0.391-1.207
				C-254.692-16.987-255.083-17.154-255.63-17.154z M-254.965-14.677c0,0.416-0.333,0.666-0.802,0.645
				c-0.313,0-0.547-0.167-0.547-0.458v-0.021c0-0.312,0.274-0.52,0.704-0.52c0.215,0,0.45,0.062,0.645,0.146
				C-254.965-14.885-254.965-14.677-254.965-14.677z M-250.528-17.175c-0.215,0-0.411,0.146-0.469,0.375l-0.782,2.206l-0.762-2.185
				c-0.059-0.229-0.254-0.395-0.489-0.395c-0.254,0-0.469,0.208-0.489,0.499c0,0.083,0.019,0.166,0.059,0.25l1.094,2.684
				c0.079,0.271,0.293,0.458,0.567,0.479h0.059c0.254-0.021,0.489-0.187,0.586-0.458l1.056-2.684
				c0.039-0.083,0.059-0.166,0.059-0.25v-0.021C-250.039-16.945-250.254-17.175-250.528-17.175z M-247.889-17.195
				c-1.036,0-1.759,0.895-1.759,1.977v0.166c0.039,1.04,0.88,1.852,1.857,1.79c0.449,0,0.88-0.146,1.231-0.458
				c0.098-0.083,0.137-0.187,0.137-0.312v-0.021c0-0.229-0.176-0.416-0.391-0.416c-0.078,0-0.176,0.021-0.235,0.083
				c-0.215,0.166-0.469,0.27-0.723,0.25c-0.43,0.021-0.801-0.291-0.86-0.749h2.013c0.254-0.021,0.449-0.25,0.43-0.52v-0.083
				C-246.188-16.425-246.95-17.216-247.889-17.195z M-248.651-15.51c0.079-0.499,0.352-0.812,0.762-0.812
				c0.411,0,0.684,0.333,0.743,0.812H-248.651z"/>
			<path d="M-247.899-13.21c-0.424,0-0.834-0.16-1.163-0.457c-0.384-0.347-0.616-0.851-0.636-1.383v-0.168
				c0-1.155,0.777-2.026,1.808-2.026c0.458-0.007,0.885,0.163,1.216,0.487c0.34,0.333,0.535,0.795,0.535,1.269v0.083
				c0.021,0.289-0.192,0.546-0.475,0.57l-1.96,0c0.076,0.399,0.401,0.668,0.8,0.65c0.289,0.025,0.537-0.117,0.695-0.239
				c0.078-0.084,0.212-0.094,0.265-0.094c0.243,0,0.441,0.209,0.441,0.466v0.021c0,0.147-0.051,0.261-0.154,0.35
				c-0.346,0.307-0.783,0.47-1.263,0.47C-247.827-13.211-247.863-13.21-247.899-13.21z M-247.889-17.146
				c-0.975,0-1.71,0.829-1.71,1.928v0.166c0.019,0.504,0.239,0.982,0.603,1.312c0.337,0.304,0.762,0.456,1.201,0.429
				c0.459,0,0.873-0.154,1.202-0.445c0.083-0.07,0.121-0.158,0.121-0.275v-0.021c0-0.202-0.153-0.367-0.342-0.367
				c-0.085,0-0.159,0.025-0.199,0.068c-0.177,0.138-0.448,0.29-0.763,0.265c-0.452,0.022-0.844-0.318-0.905-0.792l-0.007-0.056
				h2.069c0.225-0.019,0.398-0.229,0.381-0.467l0-0.087c0-0.448-0.184-0.884-0.505-1.199c-0.312-0.305-0.716-0.468-1.145-0.459
				H-247.889z M-255.997-13.211c-0.022,0-0.043-0.001-0.065-0.002c-0.605,0-1.259-0.38-1.259-1.215c0-0.812,0.538-1.277,1.476-1.277
				c0.295,0,0.567,0.042,0.811,0.125c-0.003-0.424-0.236-0.63-0.713-0.63c-0.278,0-0.49,0.031-0.687,0.101
				c-0.043,0.024-0.109,0.024-0.153,0.024c-0.119,0.011-0.237-0.029-0.328-0.112c-0.096-0.088-0.151-0.216-0.151-0.353
				c0-0.211,0.112-0.393,0.285-0.462c0.448-0.151,0.803-0.209,1.153-0.191c0.522,0,0.936,0.147,1.264,0.45
				c0.281,0.34,0.427,0.792,0.407,1.245l0,1.704c0,0.319-0.236,0.57-0.538,0.57c-0.25,0-0.459-0.166-0.521-0.401
				C-255.288-13.363-255.637-13.211-255.997-13.211z M-255.845-15.606c-0.876,0-1.378,0.43-1.378,1.179
				c0,0.767,0.603,1.116,1.163,1.116c0.386,0.02,0.763-0.149,1.038-0.462l0.078-0.089l0.009,0.118
				c0.017,0.239,0.202,0.412,0.439,0.412c0.246,0,0.44-0.207,0.44-0.471v-1.706c0.019-0.431-0.119-0.859-0.38-1.176
				c-0.304-0.28-0.696-0.419-1.193-0.419l-0.003,0c-0.338-0.017-0.682,0.039-1.115,0.185c-0.133,0.053-0.221,0.199-0.221,0.369
				c0,0.111,0.042,0.21,0.119,0.28c0.07,0.064,0.162,0.095,0.257,0.087c0.036,0,0.09,0,0.118-0.015
				c0.216-0.077,0.438-0.11,0.727-0.11c0.539,0,0.812,0.248,0.812,0.736v0.134l-0.067-0.025
				C-255.251-15.558-255.535-15.606-255.845-15.606z M-259.168-13.213h-0.039c-0.283,0-0.534-0.209-0.596-0.497l-0.519-1.751
				l-0.52,1.755c-0.085,0.295-0.324,0.493-0.595,0.493h-0.039c-0.3-0.023-0.532-0.226-0.596-0.517l-0.878-2.68
				c-0.021-0.088-0.041-0.175-0.041-0.265c0-0.303,0.224-0.549,0.499-0.549h0.019c0.243,0,0.469,0.191,0.536,0.453l0.501,1.77
				l0.519-1.751c0.061-0.281,0.292-0.472,0.575-0.472h0.059c0.273,0,0.51,0.195,0.576,0.475l0.519,1.771l0.519-1.774
				c0.063-0.269,0.279-0.452,0.536-0.452c0.28,0,0.499,0.232,0.499,0.528v0.021c0,0.082-0.029,0.183-0.041,0.223l-0.88,2.706
				C-258.615-13.421-258.862-13.213-259.168-13.213z M-262.491-17.125c-0.221,0-0.4,0.202-0.4,0.45c0,0.078,0.019,0.16,0.038,0.238
				l0.878,2.68c0.055,0.253,0.253,0.426,0.504,0.445l0.035,0c0.226,0,0.427-0.17,0.5-0.422l0.615-2.074l0.614,2.074
				c0.053,0.246,0.263,0.422,0.5,0.422h0.039c0.258,0,0.466-0.176,0.519-0.439l0.881-2.711c0.023-0.073,0.037-0.146,0.037-0.193
				v-0.021c0-0.245-0.172-0.429-0.4-0.429c-0.21,0-0.388,0.152-0.441,0.378l-0.615,2.099l-0.614-2.097
				c-0.056-0.237-0.253-0.402-0.481-0.402h-0.059c-0.239,0-0.427,0.156-0.48,0.398l-0.616,2.081l-0.594-2.099
				c-0.057-0.221-0.242-0.38-0.441-0.38H-262.491z M-251.798-13.213c-0.295-0.022-0.529-0.219-0.615-0.514l-1.093-2.68
				c-0.041-0.087-0.062-0.178-0.062-0.268c0.021-0.314,0.252-0.549,0.538-0.549c0.251,0,0.471,0.178,0.537,0.432l0.715,2.049
				l0.735-2.074c0.062-0.242,0.27-0.407,0.516-0.407c0.145,0,0.281,0.058,0.382,0.163c0.1,0.104,0.156,0.241,0.156,0.385v0.021
				c0,0.09-0.021,0.181-0.063,0.271l-1.054,2.682c-0.1,0.278-0.341,0.465-0.628,0.489L-251.798-13.213z M-253.03-17.125
				c-0.233,0-0.422,0.195-0.439,0.453c0,0.072,0.018,0.149,0.054,0.225l1.095,2.687c0.076,0.259,0.276,0.429,0.525,0.448l0.055,0
				c0.244-0.02,0.452-0.183,0.54-0.425l1.056-2.686c0.037-0.08,0.055-0.157,0.055-0.232v-0.021c0-0.119-0.045-0.232-0.128-0.317
				c-0.083-0.086-0.194-0.133-0.311-0.133c-0.2,0-0.37,0.136-0.422,0.337l-0.83,2.342l-0.808-2.318
				C-252.643-16.978-252.824-17.125-253.03-17.125z M-255.714-13.982c-0.018,0-0.036,0-0.055-0.001
				c-0.355,0-0.594-0.204-0.594-0.507v-0.021c0-0.346,0.296-0.57,0.753-0.57c0.202,0,0.438,0.053,0.665,0.15l0.03,0.013v0.241
				c0,0.194-0.068,0.361-0.197,0.484C-255.256-14.056-255.468-13.982-255.714-13.982z M-255.61-14.982
				c-0.398,0-0.655,0.185-0.655,0.471v0.021c0,0.248,0.195,0.409,0.498,0.409c0.245,0.011,0.452-0.054,0.586-0.183
				c0.109-0.104,0.166-0.247,0.166-0.413v-0.175C-255.22-14.936-255.43-14.982-255.61-14.982z M-247.09-15.46h-1.619l0.009-0.057
				c0.084-0.534,0.387-0.853,0.811-0.853c0.424,0,0.727,0.327,0.792,0.855L-247.09-15.46z M-248.593-15.559h1.39
				c-0.072-0.441-0.331-0.713-0.686-0.713C-248.251-16.272-248.505-16.013-248.593-15.559z"/>
		</g>
	</g>
</g>
</svg>
