<?xml version="1.0" encoding="utf-8"?>
<!-- Generator: Adobe Illustrator 25.0.0, SVG Export Plug-In . SVG Version: 6.00 Build 0)  -->
<svg version="1.1" id="Layer_1" xmlns="http://www.w3.org/2000/svg" xmlns:xlink="http://www.w3.org/1999/xlink" x="0px" y="0px"
	 width="50px" height="50px" viewBox="0 0 50 50" enable-background="new 0 0 50 50" xml:space="preserve">
<g>
	<path fill-rule="evenodd" clip-rule="evenodd" fill="#4A3D70" d="M38.444,11.114c1.575,0,2.851,1.422,2.851,3.177l0,0
		c0,2.103,1.53,3.807,3.417,3.807h0.574c1.934,0,3.503,1.747,3.503,3.903l0,0c0,2.155-1.568,3.903-3.503,3.903
		c-1.887,0-3.417,1.704-3.417,3.807v0.726c0,0.988-0.405,1.87-1.039,2.453h5.929c0.009,0,0.018,0,0.027,0
		c1.783,0.007,3.222,1.459,3.214,3.242c-0.008,1.783-1.459,3.222-3.242,3.214H24.194c-0.106,0-0.211-0.005-0.315-0.015H10.127
		c-1.632,0-2.955-1.364-2.955-3.047v-0.696c0-2.017-1.586-3.652-3.541-3.652l0,0c-2.005,0-3.63-1.676-3.63-3.743l0,0
		c0-2.067,1.625-3.743,3.63-3.743h0.595c1.956,0,3.541-1.635,3.541-3.652l0,0c0-1.683,1.323-3.047,2.955-3.047h3.914
		c-0.98-0.602-1.644-1.764-1.644-3.099l0,0c0-1.953,1.421-3.536,3.174-3.536H38.444"/>
	<path fill="#184655" d="M23.995,38.738l-0.45-0.085l1.943-10.307l0.45,0.085L23.995,38.738z"/>
	<path fill="#111B34" d="M36.986,28.431l0.45-0.085l2.016,10.439H38.91L36.986,28.431z"/>
	<path fill="#111B34" d="M27.082,28.431l0.45-0.085l2.016,10.439h-0.541L27.082,28.431z"/>
	<path fill="#111B34" d="M33.982,38.785l-0.439,0.005l1.933-10.398l0.45,0.085L33.982,38.785z"/>
	<path fill="#38465B" d="M32.02,14.287c1.781,0.191,4.085,0.392,6.399,4.318c2.529,4.291,1.198,10.701-0.798,12.482
		s-8.514,3.981-13.994,0.688c0,0-3.309-1.995-1.611-5.307c2.613-5.096,2.244-6.159,3.412-8.156
		C26.597,16.315,28.24,13.882,32.02,14.287z"/>
	<path fill="#111B34" d="M37.62,31.087c-1.996,1.781-8.514,3.981-13.994,0.688c0,0-0.506-0.305-1.02-0.874
		c5.005,1.885,10.331-0.023,12.101-1.603c1.996-1.781,3.327-8.191,0.798-12.482c-0.552-0.937-1.104-1.662-1.648-2.225
		c1.407,0.39,2.982,1.334,4.561,4.014C40.947,22.896,39.616,29.306,37.62,31.087z"/>
	<path fill="#F79C8D" d="M27.239,21.634l-1.395,0.549l0.458-1.373L27.239,21.634z"/>
	<path fill="#D268CC" d="M28.631,16.972l-0.439,4.351l-0.267,0.565l-2.076-0.771c0,0,0.695-2.708,1.171-3.604
		c0.373-0.702,0.628-0.787,0.72-0.791C27.766,16.722,28.631,16.972,28.631,16.972z"/>
	<path fill="#B3B2DA" d="M32.611,16.515c1.34,0.231,1.382,0.237,1.382,0.237s-0.007,3.124-0.281,4.02
		c-0.275,0.896,0.454,6.445,0.454,6.445l-6.152,0.081c0,0,0.389-2.295,0.176-3.025c-0.952-3.26-0.451-7.55-0.451-7.55
		c0.682-0.217,2.151-0.39,2.744-0.391C31.118,16.332,31.986,16.407,32.611,16.515z"/>
	<path fill="#F7A491" d="M32.646,35.8c0,0-0.277,1.04-0.25,1.329c0.026,0.289,0.461,0.679,0.527,0.983
		c0.066,0.304,0.079,0.491-0.737,0.578c-0.816,0.087-1.33-0.058-1.343-0.159c-0.013-0.101-0.277-0.838-0.026-1.272
		c0.25-0.434,0.386-1.999,0.386-1.999L32.646,35.8z"/>
	<path fill="#111B34" d="M34.163,26.059c0.256,0.301,0.138,3.942-1.232,3.863c-5.788-0.333-9.245-1.831-9.245-1.831
		s-1.12-1.175-0.171-1.748c0.948-0.572,5.195-0.337,5.195-0.337S33.907,25.758,34.163,26.059z"/>
	<path fill="#111B34" d="M30.623,38.46c-0.011-0.085-0.006-0.643,0.112-1.081c0.331,0.138,0.851,0.359,1.23,0.248
		c0.365-0.107,0.487-0.213,0.562-0.272c0.144,0.218,0.385,0.449,0.428,0.645c0.068,0.312,0.172,0.724-0.669,0.813
		C31.446,38.901,30.637,38.564,30.623,38.46z"/>
	<path fill="#30294F" d="M34.016,25.96c0,0,0.897,0.107,1.02,1.379c0.123,1.272-2.274,9.585-2.274,9.585l-1.949-0.241
		c0,0,0.84-6.369,1.01-7.649C32.272,25.647,34.016,25.96,34.016,25.96z"/>
	<path fill="#1A2E35" d="M29.955,10.92c0,0,0.648-0.683,1.169,0.148c0,0,0.401-0.225,0.683,0.176c0,0,0.725-0.218,0.901,0.866
		c0,0,0.373-0.07,0.422,0.373c0.049,0.443-0.176,0.739-0.176,0.739s0.21,0.157,0.114,0.565c-0.081,0.347-0.368,0.399-0.368,0.399
		s-0.077,0.584-0.331,0.76c-0.254,0.176-0.598,0.092-0.598,0.092s-0.092,0.317-0.387,0.289c-0.296-0.028-0.662-0.31-0.993-0.183
		c-0.331,0.127-1.19-0.007-1.19-0.007s-0.964-0.429-0.676-1.415c0,0-0.507-0.457-0.063-1.007c0,0-0.324-0.859,0.317-1.366
		C29.42,10.843,29.955,10.92,29.955,10.92z"/>
	<path fill="#F7A491" d="M31.343,14.186l0.116,2.204c0,0-1.099,1.772-1.437,1.53c-0.338-0.242-0.075-1.495-0.075-1.495l0.117-0.87
		L31.343,14.186z"/>
	<path fill="#F47458" d="M31.381,14.9c-0.279,0.752-0.944,1.214-1.415,1.393l0.099-0.737l1.279-1.37L31.381,14.9z"/>
	<path fill="#F7A491" d="M31.698,13.817c-0.046,1.442-1.321,2.1-1.782,2.1s-0.987-0.989-0.969-2.004
		c0.008-0.422,0.049-0.809,0.094-1.116c0.105-0.707,0.836-1.162,1.521-0.926C31.282,12.118,31.727,12.927,31.698,13.817z"/>
	<path fill="#F7A491" d="M31.69,13.526c0.183,0,0.332,0.182,0.332,0.406c0,0.224-0.149,0.406-0.332,0.406
		c-0.183,0-0.332-0.182-0.332-0.406C31.358,13.707,31.507,13.526,31.69,13.526z"/>
	<path fill="#1A2E35" d="M29.917,11.279c0.271,0.33,0.104,0.904-0.373,1.281c-0.476,0.378-1.082,0.416-1.352,0.086
		s-0.104-0.903,0.373-1.281C29.041,10.988,29.646,10.949,29.917,11.279z"/>
	<path fill="#F7A491" d="M33.814,26.053c-0.501,0-1.047-0.185-2.684-0.583c-0.284-0.069-0.651-0.119-0.874-0.167
		c-0.192-0.041-0.197-0.153-0.388-0.17l-0.559,0.158c-0.109,0.031-0.279-0.005-0.39-0.022c-0.15-0.023-0.341-0.211-0.533-0.143
		c-0.516,0.184-0.999,0.821-1.087,0.744c-0.098-0.086,0.327-0.636,0.669-0.944c-0.399,0.288-0.958,0.711-1.045,0.563
		c-0.089-0.152,0.531-0.568,0.856-0.885l-0.261,0.146c0,0-0.534,0.486-0.586,0.358c-0.051-0.128,0.253-0.425,0.366-0.543
		c0.091-0.095,1.153-0.528,1.191-0.534c0.104-0.018,0.296-0.004,0.508,0.024c0.207,0.027,0.686,0.202,0.894,0.217
		c0.442,0.033,2.217,0.13,3.236,0.032c0.077-2.126,0.359-7.291,0.934-7.076C35.42,17.737,35.332,26.052,33.814,26.053z"/>
	<path fill="#B3B2DA" d="M32.837,22.122c-0.153-4.458,0.699-5.544,1.182-5.364c1.225,0.458,1.241,3.142,1.133,5.319
		C34.451,22.219,33.491,22.176,32.837,22.122z"/>
	<path fill="#F79C8D" d="M28.299,21.142h0.125l1.877,4.597l-0.129-0.02L28.299,21.142z"/>
	<path fill="#F7A491" d="M26.827,36.835l0.163,0.768l0.039,1.069l-3.552,0.097c0,0-0.012-0.166,0.154-0.36
		c0.166-0.195,1.431-0.547,1.736-0.907c0.305-0.359,0.135-0.903,0.135-0.903L26.827,36.835z"/>
	<path fill="#111B34" d="M25.146,37.682c0,0,0.913,0.368,1.354,0.15c0.441-0.218,0.427-0.278,0.555-0.197
		c0.128,0.081,0.173,1.083,0.173,1.083l-3.994,0.117c-0.278-0.006-0.418-0.21-0.193-0.385c0.155-0.12,0.334-0.2,0.435-0.258
		C23.79,38.014,25.146,37.682,25.146,37.682z"/>
	<path fill="#30294F" d="M26.568,30.786c0.077,1.219,0.393,6.263,0.393,6.263l-1.738-0.011c-0.076-0.876-2.252-7.246-2.583-8.33
		c-0.33-1.084-0.049-2.142,0.998-2.572c1.099-0.451,1.723,0.298,1.997,0.874C26.111,28.006,26.493,29.613,26.568,30.786z"/>
	<path fill="#375A64" d="M22.816,21.142h5.808c0.154,0,0.292,0.093,0.35,0.235l1.788,4.362h3.202c0.089,0,0.162,0.073,0.162,0.162
		l0,0c0,0.09-0.073,0.162-0.162,0.162h-9.114c-0.25,0-0.478-0.147-0.58-0.376l-1.801-4.011
		C22.358,21.425,22.541,21.142,22.816,21.142z"/>
	<path fill="#FFFFFF" d="M26.182,23.265c0.172-0.034,0.343,0.097,0.382,0.293c0.039,0.196-0.068,0.383-0.24,0.417
		c-0.172,0.034-0.342-0.097-0.382-0.293C25.904,23.486,26.011,23.299,26.182,23.265z"/>
	<path fill="#30294F" d="M42.694,33.556c0.015,0.366,0.033,0.842-0.169,1.167c-0.201,0.323-0.56,0.318-0.839,0.075
		c-0.403-0.351-0.327-0.948-0.254-1.417c0.007-0.046,0.014-0.092,0.022-0.138c0.006-0.036,0.011-0.072,0.006-0.108
		c-0.009-0.064-0.049-0.118-0.084-0.172c-0.323-0.497-0.278-1.139-0.43-1.712c-0.202-0.765-0.748-1.383-1.126-2.077
		c-0.356-0.654-0.565-1.387-0.609-2.13c-0.023-0.396-0.005-0.815-0.201-1.159c-0.108-0.189-0.273-0.339-0.415-0.504
		c-0.476-0.555-0.695-1.323-0.584-2.046c0.576,0.597,0.808,1.439,1.233,2.152c0.18,0.302,0.396,0.582,0.554,0.895
		c0.259,0.513,0.353,1.092,0.541,1.636c0.243,0.703,0.649,1.349,1.175,1.873c0.282,0.281,0.605,0.535,0.788,0.889
		c0.151,0.291,0.195,0.623,0.232,0.949C42.604,32.335,42.669,32.947,42.694,33.556z"/>
	<path fill="#B3B2DA" d="M43.531,34.145c0.016,0.28,0.125,0.573-0.235,0.662c-0.378,0.093-0.622-0.28-0.727-0.587
		c-0.135-0.396-0.162-0.821-0.288-1.22c-0.225-0.712-0.76-1.329-0.812-2.074c-0.062-0.909,0.617-1.74,0.578-2.65
		c-0.017-0.38-0.158-0.742-0.252-1.111c-0.311-1.222-0.097-2.545-0.499-3.739c-0.09-0.268-0.211-0.528-0.26-0.807
		c-0.081-0.465,0.046-0.934,0.246-1.368c0.089-0.193,0.361-0.201,0.459-0.013c0.091,0.175,0.142,0.377,0.164,0.574
		c0.038,0.346,0.003,0.696,0.033,1.043c0.07,0.802,0.482,1.535,0.615,2.329c0.062,0.369,0.062,0.745,0.062,1.119
		c0,0.601,0.001,1.201,0.001,1.802c0,0.548,0.001,1.101,0.12,1.637c0.122,0.552,0.365,1.069,0.522,1.612
		C43.528,32.278,43.477,33.197,43.531,34.145z"/>
	<path fill="#30294F" d="M43.549,34.121c-0.061,0.243-0.059,0.457-0.237,0.652c-0.254,0.279-0.637,0.291-0.623-0.163
		c0.024-0.772-0.001-1.545-0.074-2.313c-0.038-0.4-0.089-0.804-0.028-1.201c0.049-0.318,0.168-0.621,0.257-0.93
		c0.17-0.592,0.23-1.212,0.214-1.827c-0.011-0.429-0.058-0.863,0.028-1.284c0.071-0.35,0.231-0.674,0.369-1.004
		c0.575-1.376,0.77-2.884,1.285-4.283c0.018-0.049,0.043-0.105,0.093-0.12c0.07-0.022,0.135,0.048,0.167,0.115
		c0.155,0.315,0.081,0.688,0.016,1.032c-0.236,1.241-0.322,2.505-0.408,3.765c-0.055,0.811-0.111,1.622-0.166,2.432
		c-0.03,0.446-0.062,0.896-0.188,1.325c-0.067,0.229-0.161,0.451-0.194,0.688c-0.04,0.28,0.008,0.563,0.024,0.845
		C44.132,32.713,43.748,33.325,43.549,34.121z"/>
	<path fill="#B3B2DA" d="M41.214,34.925c-0.256-0.118-0.38-0.414-0.425-0.694c-0.045-0.279-0.035-0.57-0.13-0.836
		c-0.104-0.291-0.326-0.528-0.433-0.818c-0.128-0.345-0.083-0.733-0.187-1.087c-0.087-0.298-0.283-0.563-0.54-0.736
		c-0.067-0.045-0.106-0.123-0.105-0.204l0,0c0.001-0.051,0.053-0.085,0.1-0.064c0.334,0.152,0.674,0.338,0.823,0.668
		c0.067,0.149,0.089,0.314,0.144,0.467c0.216,0.604,0.891,0.913,1.23,1.457C41.909,33.431,42.141,35.353,41.214,34.925z"/>
	<path fill="#30294F" d="M45.549,32.9c-0.014,0.263,0.026,0.539-0.077,0.781c-0.066,0.155-0.184,0.281-0.282,0.418
		c-0.341,0.483-0.465,1.167-0.99,1.439c-0.035,0.018-0.073,0.034-0.112,0.027c-0.054-0.01-0.089-0.062-0.111-0.112
		c-0.129-0.3,0.016-0.637,0.101-0.952c0.015-0.055,0.028-0.116,0.001-0.167c-0.029-0.056-0.095-0.08-0.14-0.124
		c-0.09-0.087-0.081-0.231-0.063-0.355c0.044-0.31,0.107-0.617,0.187-0.919c0.045-0.171,0.098-0.344,0.197-0.492
		c0.109-0.162,0.267-0.283,0.414-0.41c0.653-0.562,1.154-1.301,1.434-2.117c0.061-0.177,0.115-0.363,0.24-0.501
		c0.125-0.138,0.349-0.209,0.501-0.102c0.108,0.076-0.336,0.791-0.388,0.877c-0.148,0.245-0.15,0.458-0.234,0.73
		C46.023,31.589,45.588,32.186,45.549,32.9z"/>
	<path fill="#B3B2DA" d="M43.384,35.212c-0.373-0.161-0.467-0.652-0.418-1.056c0.124-1.015,0.803-1.874,1.073-2.86
		c0.136-0.496,0.172-1.031,0.439-1.471c0.217-0.358,0.568-0.615,0.81-0.957c0.251-0.356,0.376-0.8,0.345-1.235
		c-0.011-0.156-0.041-0.316-0.001-0.467c0.04-0.151,0.18-0.292,0.334-0.265c0.17,0.029,0.247,0.229,0.27,0.4
		c0.106,0.787-0.262,1.552-0.398,2.334c-0.047,0.274-0.067,0.553-0.146,0.82c-0.109,0.369-0.33,0.702-0.396,1.081
		c-0.051,0.295-0.004,0.599-0.039,0.896c-0.032,0.267-0.13,0.521-0.227,0.772C44.787,33.835,44.462,35.679,43.384,35.212z"/>
	<path fill="#D268CC" d="M45.448,34.455c0.169,0,0.294,0.158,0.255,0.323l-0.902,3.802c-0.028,0.118-0.133,0.202-0.255,0.202h-1.399
		h-0.172h-1.399c-0.121,0-0.227-0.083-0.255-0.202l-0.902-3.802c-0.039-0.165,0.086-0.323,0.255-0.323h2.301h0.172H45.448z"/>
	<path fill="#D268CC" d="M18.334,30.626H6.312v-0.621h12.022V30.626z"/>
	<path fill="#D268CC" d="M14.389,34.151H6.53v-0.543h7.86V34.151z"/>
	<path fill="#D268CC" d="M16.647,38.784v-8.469h0.507v8.469H16.647z"/>
	<path fill="#D268CC" d="M9.475,38.784v-8.469h0.507v8.469H9.475z"/>
	<path fill="#D268CC" d="M12.545,38.784l2.779-8.541l0.448,0.146l-2.732,8.396H12.545z"/>
	<path fill="#D268CC" d="M4.867,38.784l2.371-8.54l0.454,0.126l-2.336,8.414H4.867z"/>
	<path fill="#FFFFFF" d="M29.498,14.79l0.893-0.015c0,0-0.015,0.339-0.407,0.357C29.505,15.154,29.498,14.79,29.498,14.79z"/>
	<path fill="#30294F" d="M13.012,29.973H12.5v-3.024h0.511V29.973z"/>
	<path fill="#CECDE9" d="M12.233,29.973h-0.511v-2.668h0.511V29.973z"/>
	<path fill="#D268CC" d="M14.582,29.731l-0.475,0.19l-0.99-2.478l0.475-0.19L14.582,29.731z"/>
	<path fill="#CECDE9" d="M15.271,29.731l-0.475,0.19l-0.99-2.478l0.475-0.19L15.271,29.731z"/>
	<path fill="#8494AB" d="M11.481,29.921H8.909v-0.459h2.572V29.921z"/>
</g>
</svg>
