<?xml version="1.0" encoding="utf-8"?>
<!-- Generator: Adobe Illustrator 25.0.0, SVG Export Plug-In . SVG Version: 6.00 Build 0)  -->
<svg version="1.1" id="Layer_1" xmlns="http://www.w3.org/2000/svg" xmlns:xlink="http://www.w3.org/1999/xlink" x="0px" y="0px"
	 width="50px" height="50px" viewBox="0 0 50 50" enable-background="new 0 0 50 50" xml:space="preserve">
<g>
	<path fill-rule="evenodd" clip-rule="evenodd" fill="#4A3D70" d="M38.443,14.731c1.575,0,2.851,1.421,2.851,3.174l0,0
		c0,2.101,1.53,3.804,3.417,3.804h0.574c1.934,0,3.503,1.746,3.503,3.899l0,0c0,2.153-1.568,3.899-3.503,3.899
		c-1.887,0-3.417,1.703-3.417,3.804v0.725c0.011,0.926-0.366,1.815-1.039,2.451h5.929c0.011,0,0.023,0,0.034,0
		c1.781,0.009,3.217,1.461,3.208,3.242c-0.01,1.781-1.461,3.217-3.242,3.208H24.193c-0.106,0-0.212-0.005-0.315-0.015H10.127
		c-1.632,0-2.955-1.363-2.955-3.044V39.18c0-2.015-1.586-3.648-3.542-3.648l0,0c-2.005,0-3.63-1.674-3.63-3.74l0,0
		c0-2.066,1.625-3.74,3.63-3.74h0.595c1.956,0,3.542-1.633,3.542-3.648l0,0c0-1.681,1.323-3.044,2.955-3.044h3.914
		c-0.98-0.601-1.644-1.762-1.644-3.096l0,0c0-1.951,1.421-3.533,3.174-3.533H38.443"/>
	<path fill="#FFFFFF" d="M25.318,8.157v14.091h18.905V8.157H25.318z M43.329,21.333H26.213V9.073h17.116V21.333z"/>
	<path fill="#FFFFFF" d="M34.991,21.759h-0.441V8.646h0.441V21.759z"/>
	<path fill="#FFFFFF" d="M25.633,15.423v-0.44h18.276v0.44H25.633z"/>
	<path fill="#FFFFFF" d="M42.588,43.86c0,0.627-7.587,1.136-16.947,1.136S8.694,44.487,8.694,43.86
		c0-0.627,7.587-1.136,16.947-1.136S42.588,43.233,42.588,43.86z"/>
	<path fill="#8494AB" d="M9.582,41.27c0,0.357-1.493,0.646-3.334,0.646s-3.334-0.289-3.334-0.646c0-0.357,1.493-0.646,3.334-0.646
		S9.582,40.913,9.582,41.27z"/>
	<path fill="#B3B2DA" d="M26.263,9.985h-1.796l-1.446,1.639l0.711-1.639h-1.305c-0.106,0-0.192-0.086-0.192-0.192V7.325
		c0-0.106,0.086-0.192,0.192-0.192h3.836c0.106,0,0.192,0.086,0.192,0.192v2.469C26.455,9.9,26.369,9.985,26.263,9.985z"/>
	<path fill="#FFFFFF" d="M23.846,9.27H23.38V8.833h0.466V9.27z"/>
	<path fill="#FFFFFF" d="M24.578,9.27h-0.466V8.833h0.466V9.27z"/>
	<path fill="#FFFFFF" d="M25.31,9.27h-0.466V8.833h0.466V9.27z"/>
	<path fill="#375A64" d="M35.46,25.921H15.799c-0.454,0-0.822-0.368-0.822-0.821V13.508c0-0.453,0.368-0.821,0.822-0.821H35.46
		c0.454,0,0.822,0.368,0.822,0.821V25.1C36.281,25.554,35.913,25.921,35.46,25.921z"/>
	<path fill="#F9F9F9" d="M35.024,23.99H16.192V13.589h18.832V23.99z"/>
	<path fill="#CECDE9" d="M33.709,22.909H27.62v-7.706h6.089V22.909z"/>
	<path fill="#375A64" d="M33.136,16.697h-4.942v-0.768h4.942V16.697z"/>
	<path fill="#375A64" d="M33.136,18.12h-4.942v-0.768h4.942V18.12z"/>
	<path fill="#FFFFFF" d="M33.136,19.543h-4.942v-0.768h4.942V19.543z"/>
	<path fill="#FFFFFF" d="M33.136,20.966h-4.942v-0.768h4.942V20.966z"/>
	<path fill="#FFFFFF" d="M33.136,22.389h-4.942v-0.768h4.942V22.389z"/>
	<path fill="#1A2E35" d="M20.77,16.148c0,0,1.003,0.006,1.143,0.659c0.14,0.653,0.015,1.388,0.187,1.848
		c0.171,0.46,0.704,1.743-0.439,1.815c-1.143,0.073-1.33-0.254-1.61-0.266s-0.7,0.662-1.528,0.277
		c-0.828-0.386-0.467-1.253-0.109-1.358c0.358-0.105,0.218-0.722,0.132-0.928c-0.179-0.428-0.311-1.743,0.91-2.13
		C20.442,15.752,20.77,16.148,20.77,16.148z"/>
	<path fill="#EF8B67" d="M20.904,19.062c0.05,0.818,0.272,1.648,0.636,2.267c-0.063,0.361-0.294,0.848-1.073,0.869
		c-0.919,0.024-1.116-0.654-1.157-1.011c0.363-0.742,0.422-1.785,0.496-2.665C20.054,18.7,20.549,19.061,20.904,19.062z"/>
	<path fill="#F4BCA3" d="M20.066,16.477c0,0,1.26,0.06,1.52,0.321s0.248,0.789,0.321,1.563c0.073,0.774-0.404,1.63-0.824,1.743
		c-0.42,0.113-1.575-0.609-1.736-1.813C19.186,17.086,19.581,16.436,20.066,16.477z"/>
	<path fill="#F4BCA3" d="M29.53,20.018c0,0,0.617-0.684,0.856-1.06c0.236-0.371,1.116-1.594,1.299-1.402
		c0.182,0.19-0.576,1.203-0.576,1.203s0.734-1.312,0.992-1.168c0.254,0.142-0.681,1.296-0.681,1.296s0.797-1.11,0.934-0.955
		c0.136,0.154-0.026,0.399-0.682,1.209c0,0,0.562-0.698,0.699-0.478c0.136,0.218-0.506,0.835-0.73,0.971
		c-0.228,0.138-1.33,0.723-1.627,1.011C30.011,20.646,29.483,20.374,29.53,20.018z"/>
	<path fill="#EF8B67" d="M31.5,19.235c-0.044,0.09-0.262,0.322-0.476,0.408c-0.295,0.118-0.601,0.072-0.614,0.026
		c-0.044-0.158-0.137-0.282,0.002-0.428c0.073-0.076,0.125-0.157,0.191-0.238c0.125-0.153,0.301-0.218,0.493-0.236
		c0.157-0.014,0.418-0.028,0.482,0.139C31.601,18.964,31.557,19.118,31.5,19.235z"/>
	<path fill="#F4BCA3" d="M30.544,19.1c0,0,0.701-0.475,0.919-0.33c0.217,0.145,0.024,0.33-0.717,0.636c0,0-0.242,0.362-0.411,0.403
		C30.335,19.809,30.086,19.358,30.544,19.1z"/>
	<path fill="#1A2E35" d="M20.626,16.191c0,0,0.346,1.506-0.728,1.694c0,0-0.283,0.383-0.129,0.851
		c0.153,0.468,0.497,1.466-0.123,1.697c-0.62,0.231-1.088-0.146-0.838-1.119c0.25-0.974,0.25-1.506,0.404-2.216
		C19.365,16.388,19.659,15.864,20.626,16.191z"/>
	<path fill="#1A2E35" d="M22.309,16.574c0.146,0.202,0.135,1.035-1.042,0.979s-1.256-1.416-1.256-1.416
		C21.627,15.577,22.162,16.372,22.309,16.574z"/>
	<path fill="#30294F" d="M23.986,21.21c0.08,0.048,2.057,1.707,2.315,1.707c0.258,0,3.365-3.329,3.365-3.329l0.914,0.908
		c-0.983,1.441-3.109,3.5-3.109,3.5s-1.998,0-2.589,0c-0.591,0-0.956-0.488-1.01-0.488s0,0.488,0,0.488h-7.612
		c0.317-2.335,1.166-2.641,1.166-2.641c0.951-0.113,2.099-0.753,2.099-0.753s0.834,0.672,1.044,0.592
		c0.21-0.08,0.632-0.613,0.632-0.613C21.862,21.128,23.905,21.161,23.986,21.21z"/>
	<path opacity="0.55" fill="#F9F9F9" d="M31.906,23.99h-2.213c0,0,5.229-4.085,5.331-4.2v1.172
		C34.446,21.561,31.906,23.99,31.906,23.99z"/>
	<path opacity="0.55" fill="#F9F9F9" d="M35.024,14.659v1.653c-0.394,0.481-9.256,7.164-9.797,7.683h-3.999
		C22.298,23.148,34.616,14.965,35.024,14.659z"/>
	<path opacity="0.55" fill="#F9F9F9" d="M26.921,13.589h2.101c-0.015,0.013-0.031,0.025-0.046,0.038
		c-0.874,0.749-9.521,9.319-10.491,10.363l-2.008,0.005C17.772,22.653,24.501,15.927,26.921,13.589z"/>
	<path opacity="0.55" fill="#F9F9F9" d="M16.192,18.738v-2.028c1.05-1.043,2.161-2.14,3.16-3.122h2.055
		C19.899,15.063,17.878,17.059,16.192,18.738z"/>
	<path fill="#932646" d="M22.677,27.096h-2.079c0,0,0.427-1.233,1.16-1.354c0.733-0.121,0.975,0.233,0.975,0.233
		C22.862,26.145,22.677,27.096,22.677,27.096z"/>
	<path fill="#932646" d="M28.529,25.976c0,0,0.242-0.354,0.975-0.233c0.733,0.121,1.16,1.354,1.16,1.354h-2.079
		C28.586,27.096,28.4,26.145,28.529,25.976z"/>
	<path fill="#D268CC" d="M23.377,24.618c-0.403,0.918-1.93,2.195-2.188,2.478c-0.258,0.284-0.58,0.222-1.266,0.222
		c-0.685,0-1.216-0.222-1.119-0.49c0.097-0.267,2.176-3.575,2.707-3.977c0.532-0.403,1.257-0.419,1.257-0.419
		C23.145,22.385,23.78,23.7,23.377,24.618z"/>
	<path fill="#D268CC" d="M28.622,22.433c0,0,0.725,0.016,1.257,0.419c0.532,0.403,2.611,3.71,2.707,3.977
		c0.097,0.267-0.434,0.49-1.119,0.49c-0.685,0-1.008,0.061-1.266-0.222c-0.258-0.283-1.785-1.56-2.188-2.478
		C27.611,23.7,28.246,22.385,28.622,22.433z"/>
	<path fill="#EF8B67" d="M26.52,21.605h-1.65l0.215-1.126h1.22L26.52,21.605z"/>
	<path fill="#1A2E35" d="M27.291,18.593c0,1.086-0.27,2.504-1.587,2.504c-0.003,0-0.005,0-0.008,0c-0.003,0-0.005,0-0.008,0
		c-1.317,0-1.588-1.418-1.588-2.504c0-1.086,0.921-1.464,1.583-1.464c0.004,0,0.008,0.001,0.012,0.001
		c0.004,0,0.008-0.001,0.012-0.001C26.37,17.129,27.291,17.507,27.291,18.593z"/>
	<g>
		<path d="M24.885,40.8c0.054,0.29-2.299,1.964-2.428,2.007c-0.129,0.043-0.376-0.225-0.344-0.666
			c0.032-0.44,0.817-1.331,0.956-1.514c0.14-0.182-0.215-0.794-0.215-0.794l0.999-0.612C23.854,39.222,24.831,40.51,24.885,40.8z"/>
		<path d="M27.429,39.222l0.999,0.612c0,0-0.355,0.612-0.215,0.794c0.14,0.182,0.924,1.073,0.956,1.514
			c0.032,0.44-0.215,0.708-0.344,0.666c-0.129-0.043-2.482-1.717-2.428-2.007C26.452,40.51,27.429,39.222,27.429,39.222z"/>
	</g>
	<path fill="#2B454E" d="M13.43,43.86h-0.885V27.097h0.885V43.86z"/>
	<path fill="#2B454E" d="M38.672,43.86h-0.885V27.097h0.885V43.86z"/>
	<path fill="#B3B2DA" d="M40.33,27.096v0.444H10.928v-0.444H40.33z"/>
	<path fill="#375A64" d="M31.826,33.092c0,0.58-3.545,7.224-3.545,7.224l-1.3-0.663c0,0,2.164-5.563,1.901-5.805
		c-0.263-0.241-3.241-0.424-3.241-0.424s-2.978,0.183-3.241,0.424c-0.263,0.242,1.901,5.805,1.901,5.805l-1.3,0.663
		c0,0-3.545-6.645-3.545-7.224c0-0.58,3.266-2.973,3.901-3.338c0.635-0.365,3.932-0.365,4.567,0
		C28.56,30.119,31.826,32.513,31.826,33.092z"/>
	<path fill="#30294F" d="M26.883,22.053l-1.188,0.251l-1.188-0.251c0,0,0.374-0.834,0.43-0.889c0.055-0.055,0.525-0.02,0.759-0.02
		c0.234,0,0.703-0.036,0.759,0.02C26.509,21.219,26.883,22.053,26.883,22.053z"/>
	<path fill="#2B454E" d="M29.139,43.719h-1.164c-0.069,0-0.13-0.047-0.144-0.115c-0.016-0.076-0.032-0.187-0.031-0.32
		c0.001-0.073,0.053-0.137,0.125-0.147c0.073-0.01,0.154-0.028,0.159-0.055c0.012-0.062-0.028-0.176-0.267-0.373
		c-0.43-0.354-1.454-1.138-1.454-1.138l-0.722,0.021l-0.722-0.021c0,0-1.025,0.784-1.454,1.138c-0.238,0.196-0.278,0.31-0.267,0.373
		c0.005,0.027,0.086,0.045,0.159,0.055c0.072,0.01,0.125,0.074,0.126,0.147c0.001,0.133-0.015,0.243-0.031,0.32
		c-0.014,0.068-0.075,0.115-0.144,0.115h-1.165c-0.365,0-0.43-0.462-0.118-0.908c0.311-0.446,2.686-2.173,2.686-2.173h0.93h0.93
		c0,0,2.374,1.727,2.686,2.173C29.569,43.258,29.504,43.719,29.139,43.719z"/>
	<path fill="#2B454E" d="M26.496,33.425l-0.427,7.707h-0.427h-0.427l-0.427-7.707h0.855H26.496z"/>
	<path fill="#2B454E" d="M27.925,33.092c0,0-0.232,2.625-2.284,2.625s-2.284-2.625-2.284-2.625h2.284H27.925z"/>
	<path fill="#B3B2DA" d="M28.086,30.785c-0.537,1.031-2.445,1.009-2.445,1.009s-1.908,0.021-2.445-1.009
		c-0.537-1.031-2.127-7.428-1.547-8.201c0.58-0.773,3.992-0.923,3.992-0.923s3.412,0.15,3.992,0.923
		C30.213,23.356,28.623,29.754,28.086,30.785z"/>
	<path fill="#2B454E" d="M26.396,33.554c-0.086,0.365-1.424,0.365-1.51,0c-0.086-0.365-0.634-4.004-0.408-4.154
		c0.195-0.13,2.131-0.13,2.327,0C27.03,29.55,26.482,33.189,26.396,33.554z"/>
	<path fill="#2B454E" d="M30.11,33.849h-8.937v-1.191h8.937V33.849z"/>
	<path fill="#4A3D70" d="M18.149,27.096h-5.519v-0.882h5.519V27.096z"/>
	<path fill="#D268CC" d="M17.544,26.214h-5.52v-0.883h5.52V26.214z"/>
	<g>
		<path fill="#8494AB" d="M37.628,25.649v0.013c0,0.355-0.288,0.642-0.643,0.642h-0.315v-0.173h0.231
			c0.26,0,0.471-0.211,0.471-0.471v-0.01c0-0.26-0.211-0.471-0.471-0.471h-0.231v-0.173h0.315
			C37.341,25.007,37.628,25.294,37.628,25.649z"/>
		<path fill="#8494AB" d="M36.575,27.097h-1.426c-0.209,0-0.378-0.169-0.378-0.378v-2.099h2.182v2.099
			C36.953,26.927,36.784,27.097,36.575,27.097z"/>
		<path fill="#4D6486" d="M35.808,26.92h-0.52c-0.179,0-0.324-0.145-0.324-0.324v-1.801h0.825v2.017
			C35.788,26.851,35.798,26.886,35.808,26.92z"/>
		<path fill="#C8CED9" d="M36.768,24.796v1.801c0,0.179-0.145,0.324-0.324,0.324h-0.243c0.051-0.06,0.083-0.139,0.083-0.226v-1.899
			H36.768z"/>
	</g>
	<g>
		<g>
			<path fill="#0400A3" d="M21.906,14.89h-4.392c-0.121,0-0.22-0.098-0.22-0.22v-2.827c0-0.121,0.098-0.22,0.22-0.22h4.392
				c0.121,0,0.22,0.098,0.22,0.22v2.827C22.125,14.792,22.027,14.89,21.906,14.89z"/>
			<path fill="#FFFFFF" d="M21.906,14.63h-4.392v-2.745h4.392V14.63z"/>
		</g>
		<path fill="#D268CC" d="M20.365,13.36l-1.31,0.672v-1.345L20.365,13.36z"/>
	</g>
	<g>
		<path fill="#375A64" d="M14.951,10.673H2.882V9.997h12.069V10.673z"/>
		<path fill="#30294F" d="M10.211,9.997H9.366V5.004h0.845V9.997z"/>
		<path fill="#CECDE9" d="M8.925,9.997H8.08V5.592h0.845V9.997z"/>
		<path fill="#D268CC" d="M12.805,9.597L12.021,9.91l-1.635-4.09l0.785-0.313L12.805,9.597z"/>
		<path fill="#CECDE9" d="M13.944,9.597L13.16,9.91l-1.635-4.09l0.785-0.313L13.944,9.597z"/>
		<path fill="#8494AB" d="M7.682,9.91H3.433V9.152h4.249V9.91z"/>
	</g>
	<path fill="#D268CC" d="M27.847,12.7V9.782c0-0.125,0.101-0.226,0.227-0.226h4.533c0.125,0,0.227,0.101,0.227,0.226V12.7
		c0,0.125-0.102,0.226-0.227,0.226h-0.723l-2.299,1.287l1.066-1.287h-2.577C27.948,12.926,27.847,12.825,27.847,12.7z"/>
	<path fill="#FFFFFF" d="M31.074,10.87c0,0.377-0.475,0.488-0.475,0.635v0.058h-0.475v-0.139c0-0.203,0.361-0.319,0.361-0.544
		c0-0.103-0.067-0.194-0.183-0.194c-0.15,0-0.181,0.117-0.181,0.233c0,0.025,0,0.05,0.003,0.075h-0.511
		c-0.003-0.036-0.008-0.069-0.008-0.106c0-0.361,0.322-0.586,0.758-0.586C30.788,10.303,31.074,10.526,31.074,10.87z M30.641,12.246
		h-0.55v-0.513h0.55V12.246z"/>
	<path fill="#8494AB" d="M6.834,34.379c-0.487-0.206-0.839-0.377-0.756-1.153c0.039-0.369,0.17-0.625,0.435-0.847
		c0.215-0.18,0.323-0.247,0.39-0.547c0.101-0.454-0.026-0.827,0.192-1.242c0.233-0.443,0.735-0.399,0.968-0.812
		c0.201-0.358,0.295-0.754,0.751-0.894c0.404-0.124,0.649,0.222,0.512,0.574c-0.08,0.205-0.25,0.381-0.301,0.598
		c-0.05,0.214,0.054,0.36,0.156,0.536c0.242,0.416,0.367,0.918-0.103,1.342c-0.281,0.253-0.496,0.472-0.354,0.888
		c0.161,0.475,0.244,0.766-0.186,1.184c-0.322,0.313-0.622,0.288-0.983,0.312c-0.325,0.021-0.748,0.159-1.013-0.056L6.834,34.379z"
		/>
	<path fill="#30294F" d="M5.796,34.369c-0.348,0.373-0.646,0.665-1.16,0.222c-0.261-0.225-0.375-0.497-0.369-0.885
		c0.005-0.305,0.027-0.443-0.163-0.677c-0.298-0.367-0.725-0.499-0.918-0.972c-0.208-0.51,0.257-0.837,0.089-1.296
		c-0.146-0.398-0.421-0.772-0.159-1.116c0.213-0.28,0.654-0.112,0.821,0.21c0.096,0.185,0.114,0.392,0.236,0.57
		c0.119,0.172,0.279,0.216,0.45,0.277c0.38,0.136,0.721,0.367,0.752,0.853c0.019,0.3,0.049,0.549,0.335,0.676
		c0.303,0.135,0.471,0.222,0.528,0.678c0.043,0.352-0.071,0.553-0.189,0.834c-0.114,0.27-0.209,0.693-0.454,0.848L5.796,34.369z"/>
	<path fill="#FFFFFF" d="M7.191,33.878c-0.015,0-0.031-0.001-0.046-0.002c-0.02-0.002-0.035-0.02-0.033-0.04
		c0.002-0.02,0.018-0.036,0.04-0.033c0.241,0.026,0.49-0.194,0.628-0.389c0.11-0.156,0.101-0.296,0.088-0.474L7.86,32.792
		c-0.023-0.384-0.044-0.715,0.254-1.016c0.33-0.333,0.411-0.539,0.394-1.002c-0.001-0.038-0.004-0.077-0.006-0.118
		c-0.008-0.15-0.018-0.32,0.011-0.46c0.016-0.079,0.053-0.155,0.088-0.228c0.046-0.094,0.089-0.184,0.09-0.278
		c0-0.02,0.017-0.036,0.037-0.036c0,0,0,0,0,0c0.02,0,0.037,0.017,0.036,0.037c-0.001,0.11-0.05,0.211-0.098,0.309
		c-0.035,0.072-0.068,0.141-0.082,0.211c-0.027,0.131-0.017,0.296-0.009,0.441c0.002,0.041,0.004,0.082,0.006,0.12
		c0.018,0.482-0.072,0.709-0.415,1.056c-0.275,0.277-0.257,0.578-0.233,0.959l0.009,0.146c0.013,0.185,0.024,0.344-0.101,0.522
		C7.693,33.665,7.448,33.878,7.191,33.878z"/>
	<path fill="#FFFFFF" d="M8.027,32.86c-0.045,0-0.1-0.018-0.153-0.079c-0.013-0.015-0.011-0.038,0.004-0.052
		c0.015-0.013,0.039-0.011,0.052,0.004c0.038,0.045,0.079,0.061,0.124,0.05c0.154-0.039,0.322-0.369,0.349-0.492
		c0.08-0.364,0.176-0.55,0.533-0.688c0.019-0.007,0.04,0.002,0.047,0.021c0.007,0.019-0.002,0.04-0.021,0.048
		c-0.343,0.132-0.415,0.303-0.488,0.635c-0.024,0.11-0.197,0.496-0.403,0.547C8.058,32.857,8.043,32.86,8.027,32.86z"/>
	<path fill="#FFFFFF" d="M5.817,34.177c-0.069,0-0.134-0.016-0.194-0.047c-0.256-0.135-0.374-0.531-0.479-0.881
		c-0.051-0.173-0.1-0.336-0.159-0.442c-0.157-0.285-0.33-0.475-0.636-0.7c-0.359-0.263-0.446-0.462-0.511-0.891
		c-0.053-0.351-0.124-0.705-0.283-0.915c-0.012-0.016-0.009-0.039,0.007-0.051c0.016-0.012,0.039-0.009,0.051,0.007
		c0.169,0.223,0.242,0.588,0.297,0.948c0.062,0.413,0.141,0.593,0.481,0.843c0.261,0.191,0.472,0.387,0.657,0.724
		c0.062,0.113,0.112,0.28,0.165,0.457c0.1,0.336,0.214,0.717,0.442,0.837c0.088,0.047,0.188,0.051,0.304,0.014
		c0.019-0.006,0.04,0.004,0.046,0.024c0.006,0.019-0.004,0.04-0.024,0.046C5.926,34.168,5.87,34.177,5.817,34.177z"/>
	<path fill="#FFFFFF" d="M4.687,32.371c-0.008,0-0.016-0.002-0.023-0.008c-0.016-0.012-0.019-0.035-0.007-0.052
		c0.108-0.139,0.042-0.36-0.028-0.595c-0.061-0.204-0.123-0.415-0.07-0.587c0.006-0.019,0.027-0.03,0.046-0.024
		c0.019,0.006,0.03,0.027,0.024,0.046c-0.047,0.15,0.013,0.35,0.07,0.544c0.072,0.242,0.146,0.492,0.016,0.661
		C4.709,32.366,4.698,32.371,4.687,32.371z"/>
	<path fill="#FFFFFF" d="M5.055,32.867c-0.004,0-0.009-0.001-0.014-0.003c-0.052-0.02-0.092-0.045-0.131-0.068
		c-0.063-0.038-0.117-0.071-0.207-0.077c-0.047-0.003-0.092,0-0.135,0.004c-0.091,0.006-0.185,0.014-0.297-0.042
		c-0.159-0.08-0.327-0.227-0.499-0.437c-0.024-0.029-0.054-0.075-0.086-0.124c-0.046-0.07-0.131-0.2-0.163-0.208
		c-0.019-0.005-0.032-0.024-0.028-0.043c0.004-0.019,0.022-0.032,0.041-0.029c0.057,0.01,0.118,0.097,0.212,0.24
		c0.031,0.047,0.06,0.091,0.081,0.117c0.114,0.139,0.289,0.325,0.475,0.418c0.094,0.047,0.17,0.041,0.259,0.035
		c0.045-0.003,0.093-0.007,0.145-0.003c0.107,0.007,0.174,0.048,0.24,0.087c0.036,0.022,0.074,0.045,0.12,0.063
		c0.019,0.007,0.028,0.029,0.021,0.048C5.083,32.858,5.069,32.867,5.055,32.867z"/>
	<path fill="#B3B2DA" d="M5.648,34.448c-0.521-0.439-1.141-0.735-1.001-1.572c0.116-0.693,0.916-0.871,0.665-1.617
		c-0.16-0.476-0.574-1.026-0.433-1.558c0.151-0.568,0.893-0.341,1.052-0.871c0.135-0.448-0.338-0.966,0.082-1.332
		c0.371-0.323,1.027-0.017,1.226,0.354c0.254,0.474-0.166,0.826-0.097,1.287c0.045,0.299,0.331,0.342,0.541,0.514
		c0.203,0.167,0.421,0.427,0.509,0.676c0.271,0.767-0.502,1.046-0.736,1.637c-0.221,0.558,0.532,0.73,0.589,1.293
		c0.063,0.62-0.602,1.11-1.137,1.212C6.541,34.543,5.977,34.726,5.648,34.448z"/>
	<path fill="#FFFFFF" d="M6.247,34.629c-0.003,0-0.007,0-0.01-0.001c-0.019-0.006-0.031-0.026-0.025-0.046
		c0.004-0.014,0.42-1.438,0.067-2.954c-0.224-0.959-0.021-1.63,0.141-2.17c0.097-0.321,0.18-0.598,0.135-0.843
		c-0.004-0.02,0.009-0.039,0.029-0.043c0.021-0.004,0.039,0.01,0.043,0.029c0.049,0.263-0.037,0.548-0.137,0.878
		c-0.16,0.531-0.36,1.191-0.14,2.132c0.358,1.535-0.063,2.977-0.068,2.991C6.278,34.618,6.263,34.629,6.247,34.629z"/>
	<path fill="#FFFFFF" d="M6.34,31.619c-0.018,0-0.034-0.013-0.036-0.031c-0.003-0.02,0.011-0.039,0.031-0.042
		c0.305-0.046,0.653-0.325,0.685-0.665c0.004-0.041,0.007-0.085,0.01-0.132c0.013-0.223,0.03-0.5,0.193-0.635
		c0.079-0.066,0.186-0.09,0.316-0.074c0.02,0.003,0.034,0.021,0.032,0.041c-0.003,0.02-0.02,0.033-0.041,0.032
		c-0.112-0.014-0.196,0.005-0.26,0.057c-0.138,0.114-0.154,0.374-0.166,0.583c-0.003,0.048-0.006,0.093-0.01,0.134
		c-0.037,0.387-0.417,0.68-0.747,0.73C6.344,31.618,6.342,31.619,6.34,31.619z"/>
	<path fill="#FFFFFF" d="M6.119,31.628c-0.147-0.004-0.269-0.047-0.363-0.129c-0.148-0.13-0.223-0.356-0.216-0.655
		c0.001-0.029,0.002-0.064,0.004-0.101c0.011-0.212,0.027-0.532-0.105-0.676c-0.044-0.048-0.1-0.072-0.172-0.075
		c-0.02-0.001-0.036-0.018-0.035-0.038c0.001-0.02,0.018-0.036,0.038-0.035c0,0,0,0,0,0c0.092,0.003,0.167,0.036,0.224,0.098
		c0.153,0.167,0.136,0.505,0.124,0.729c-0.002,0.037-0.003,0.07-0.004,0.099c-0.007,0.276,0.059,0.483,0.191,0.598
		c0.113,0.099,0.276,0.132,0.484,0.099c0.021-0.003,0.039,0.011,0.042,0.03c0.003,0.02-0.01,0.039-0.03,0.042
		C6.235,31.625,6.175,31.63,6.119,31.628z"/>
	<path fill="#FFFFFF" d="M6.552,34.027c-0.046,0-0.091-0.008-0.133-0.025c-0.019-0.008-0.028-0.029-0.02-0.048
		c0.008-0.019,0.029-0.028,0.048-0.02c0.221,0.09,0.559-0.158,0.687-0.323c0.053-0.069,0.088-0.175,0.126-0.288
		c0.066-0.201,0.135-0.409,0.322-0.455c0.02-0.006,0.04,0.007,0.044,0.027c0.005,0.02-0.007,0.04-0.027,0.044
		c-0.147,0.036-0.209,0.225-0.269,0.407c-0.039,0.119-0.077,0.232-0.138,0.31C7.077,33.804,6.799,34.027,6.552,34.027z"/>
	<path fill="#D268CC" d="M8.735,34.232c0.263,0.702,0.415,1.528,0.415,2.411c0,2.555-1.269,4.627-2.835,4.627
		s-2.836-2.071-2.836-4.627c0-0.884,0.152-1.709,0.415-2.411H8.735z"/>
	<path fill="#30294F" d="M3.596,35.329c0.071-0.389,0.171-0.758,0.298-1.097h4.84c0.127,0.339,0.228,0.708,0.298,1.097H3.596z"/>
	<path fill="#FFFFFF" d="M41.79,11.884c0,0.805-0.653,1.458-1.459,1.458c-0.806,0-1.459-0.653-1.459-1.458
		c0-0.805,0.653-1.458,1.459-1.458C41.136,10.426,41.79,11.079,41.79,11.884z"/>
</g>
</svg>
