<svg width="54" height="60" viewBox="0 0 54 60" fill="none" xmlns="http://www.w3.org/2000/svg">
<path d="M26.9469 59.654C20.6946 59.6494 14.6382 57.4725 9.81374 53.4955C4.9893 49.5186 1.6967 43.9888 0.499243 37.8522C-0.698216 31.7156 0.273885 25.3537 3.24924 19.8547C6.22459 14.3557 11.0183 10.0615 16.8102 7.70673C17.0662 7.59035 17.3431 7.527 17.6242 7.52051C17.9053 7.51402 18.1848 7.56452 18.4459 7.66897C18.707 7.77341 18.9442 7.92964 19.1433 8.12823C19.3424 8.32682 19.4992 8.56367 19.6043 8.82449C19.7093 9.08531 19.7605 9.36472 19.7547 9.64585C19.7489 9.92699 19.6862 10.204 19.5705 10.4603C19.4547 10.7166 19.2883 10.9467 19.0812 11.1369C18.8741 11.3271 18.6306 11.4734 18.3654 11.567C15.5073 12.7563 12.9214 14.5151 10.7651 16.7362C8.60881 18.9573 6.92742 21.5943 5.82338 24.4864C4.71935 27.3784 4.2158 30.465 4.34341 33.558C4.47103 36.651 5.22715 39.6857 6.56569 42.4769C7.90422 45.2682 9.79713 47.7577 12.1291 49.7937C14.461 51.8296 17.1831 53.3694 20.1294 54.3191C23.0757 55.2689 26.1846 55.6087 29.2666 55.3179C32.3485 55.0271 35.339 54.1118 38.0557 52.6277C38.2939 52.4463 38.5685 52.3185 38.8607 52.2528C39.1529 52.1872 39.4558 52.1853 39.7487 52.2474C40.0417 52.3094 40.3178 52.4339 40.5583 52.6123C40.7988 52.7907 40.998 53.0189 41.1423 53.2813C41.2866 53.5437 41.3726 53.8341 41.3945 54.1327C41.4164 54.4314 41.3737 54.7313 41.2692 55.0119C41.1647 55.2925 41.0009 55.5473 40.789 55.7589C40.5772 55.9705 40.3221 56.1339 40.0414 56.238C36.0383 58.4723 31.5313 59.6481 26.9469 59.654ZM45.2625 51.614C44.7494 51.6071 44.2562 51.4148 43.8739 51.0725C43.6723 50.8874 43.5092 50.6645 43.3938 50.4164C43.2784 50.1683 43.2131 49.8998 43.2015 49.6265C43.1899 49.3531 43.2322 49.0801 43.3262 48.8231C43.4201 48.5661 43.5637 48.3301 43.7489 48.1287C46.2423 45.419 48.0423 42.1458 48.9951 38.5889C49.9478 35.032 50.0249 31.2972 49.2197 27.704C48.4146 24.1108 46.7511 20.7661 44.3717 17.9559C41.9922 15.1457 38.9675 12.9536 35.5562 11.567C35.291 11.4734 35.0476 11.3271 34.8405 11.1369C34.6334 10.9467 34.4669 10.7166 34.3511 10.4603C34.2354 10.204 34.1727 9.92699 34.1669 9.64585C34.1611 9.36472 34.2123 9.08531 34.3174 8.82449C34.4224 8.56367 34.5793 8.32682 34.7783 8.12823C34.9774 7.92964 35.2146 7.77341 35.4757 7.66897C35.7368 7.56452 36.0163 7.51402 36.2974 7.52051C36.5786 7.527 36.8554 7.59035 37.1114 7.70673C41.1505 9.34084 44.7331 11.9298 47.5525 15.2518C50.3718 18.5738 52.3437 22.5297 53.2993 26.7807C54.2549 31.0317 54.1656 35.451 53.0392 39.66C51.9128 43.8689 49.7827 47.7421 46.8316 50.9475C46.6324 51.1637 46.3894 51.335 46.1189 51.4499C45.8483 51.5648 45.5564 51.6208 45.2625 51.614Z" fill="#382E60"/>
<path d="M26.9469 30.1325C26.3945 30.1325 25.8647 29.913 25.4741 29.5224C25.0835 29.1318 24.864 28.602 24.864 28.0496V2.08289C24.864 1.53047 25.0835 1.00068 25.4741 0.610064C25.8647 0.219446 26.3945 0 26.9469 0C27.4993 0 28.0291 0.219446 28.4197 0.610064C28.8103 1.00068 29.0298 1.53047 29.0298 2.08289V28.0496C29.0298 28.3231 28.9759 28.594 28.8712 28.8467C28.7666 29.0994 28.6131 29.329 28.4197 29.5224C28.2263 29.7158 27.9967 29.8692 27.744 29.9739C27.4913 30.0786 27.2204 30.1325 26.9469 30.1325Z" fill="#382E60"/>
</svg>
