<?xml version="1.0" encoding="utf-8"?>
<!-- Generator: Adobe Illustrator 25.0.0, SVG Export Plug-In . SVG Version: 6.00 Build 0)  -->
<svg version="1.1" id="Layer_1" xmlns="http://www.w3.org/2000/svg" xmlns:xlink="http://www.w3.org/1999/xlink" x="0px" y="0px"
	 width="50px" height="50px" viewBox="0 0 50 50" enable-background="new 0 0 50 50" xml:space="preserve">
<g>
	<path fill="#F3A344" d="M11.725,49.004c-0.263,0-0.528-0.03-0.79-0.09c-0.915-0.209-1.694-0.762-2.194-1.559
		c-0.499-0.796-0.659-1.738-0.449-2.654l2.965-13.067l-10.06-8.825c-0.679-0.597-1.099-1.421-1.183-2.32
		c-0.087-0.936,0.195-1.851,0.796-2.575c0.6-0.724,1.447-1.17,2.384-1.257l13.311-1.208l5.259-12.316
		c0.357-0.837,1.015-1.495,1.853-1.853c1.785-0.764,3.855,0.069,4.617,1.852l5.259,12.317l13.307,1.208
		c1.403,0.129,2.59,1.076,3.025,2.415v0.001c0.436,1.342,0.031,2.809-1.031,3.737l-10.059,8.824l2.966,13.069
		c0.201,0.884,0.056,1.799-0.407,2.578c-0.994,1.669-3.158,2.217-4.824,1.224l-11.474-6.863l-11.474,6.862
		C12.973,48.834,12.353,49.004,11.725,49.004z M24.998,2.92c-0.208,0-0.42,0.04-0.624,0.128c-0.38,0.163-0.678,0.461-0.84,0.839
		l-5.71,13.371L3.371,18.572c-0.423,0.039-0.807,0.241-1.079,0.57c-0.273,0.329-0.401,0.743-0.362,1.168
		c0.038,0.408,0.229,0.782,0.537,1.053l10.919,9.579l-3.219,14.186c-0.095,0.416-0.023,0.843,0.203,1.205
		c0.226,0.361,0.579,0.611,0.994,0.706c0.4,0.092,0.818,0.025,1.173-0.186l12.46-7.452l12.459,7.452
		c0.754,0.451,1.735,0.201,2.186-0.556c0.21-0.353,0.276-0.769,0.185-1.169l-3.22-14.186l10.92-9.58
		c0.484-0.423,0.667-1.087,0.469-1.697c-0.197-0.607-0.735-1.036-1.37-1.094l-14.451-1.314L26.467,3.887
		C26.209,3.283,25.618,2.92,24.998,2.92z"/>
</g>
</svg>
