<svg width="52" height="62" viewBox="0 0 52 62" fill="none" xmlns="http://www.w3.org/2000/svg">
<path d="M31.0183 54.4653C31.8669 53.6978 33.1693 53.6502 34.0754 54.4034C35.0721 55.232 35.2118 56.7158 34.3875 57.7176C32.3553 60.3885 29.2114 61.9685 25.8662 62L25.202 61.9716C22.1178 61.7448 19.2632 60.2035 17.372 57.7176L17.171 57.4332C16.5802 56.4514 16.778 55.1567 17.6841 54.4034C18.6808 53.5749 20.157 53.7153 20.9814 54.7171C21.3434 55.2035 21.7729 55.6352 22.2568 55.9991C23.5503 56.9671 25.1747 57.3761 26.7694 57.1354C28.3642 56.8947 29.7974 56.0242 30.751 54.7171H30.7781L31.0183 54.4653ZM25.8933 0C35.283 0 45.8126 6.71008 47.0066 17.4844V23.1034C47.4143 25.1314 48.3508 27.0141 49.7204 28.5587C49.8016 28.652 49.8742 28.7524 49.9375 28.8588C51.1793 30.7532 51.8916 32.9483 52 35.2143L51.9186 35.7871C52.0121 38.888 50.9909 41.919 49.042 44.3247C46.5531 47.0464 43.1506 48.7466 39.4894 49.0981C30.471 50.1014 21.3699 50.1014 12.3515 49.0981C8.74378 48.7227 5.40056 47.0231 2.96177 44.3247C0.980708 41.9535 -0.0711265 38.937 0.00373812 35.8416V35.4597C0.15294 33.1259 0.921334 30.8749 2.22905 28.9406L2.44615 28.6678C3.80614 27.1167 4.74136 25.2367 5.15994 23.2125V17.5935L5.31001 17.2796C5.76626 16.4827 6.65487 16.0166 7.58554 16.1186C8.63255 16.2334 9.47332 17.0388 9.6377 18.0845V23.7035C9.64826 23.8032 9.64826 23.9038 9.6377 24.0035C9.07264 26.8176 7.78109 29.4327 5.89267 31.5864C5.16542 32.7508 4.75378 34.0861 4.6986 35.4597V36.0598C4.63835 37.9918 5.27441 39.8807 6.4897 41.3788C8.1746 43.128 10.4277 44.212 12.84 44.4338C21.5707 45.3885 30.3787 45.3885 39.1095 44.4338C41.5876 44.2052 43.8958 43.0694 45.5955 41.2424C46.7511 39.7797 47.3565 37.9542 47.3051 36.0871V35.4597C47.2495 34.0815 46.8481 32.7397 46.1382 31.5592C44.1712 29.4299 42.8037 26.8126 42.1761 23.9762C42.1655 23.8765 42.1655 23.7759 42.1761 23.6762V18.0299C41.3891 9.79234 33.2206 4.6916 26.1104 4.6916C23.0876 4.68461 20.1144 5.46459 17.4806 6.95557L17.158 7.11785C16.4948 7.38925 15.736 7.3416 15.1054 6.97324C14.3697 6.54348 13.925 5.74532 13.9449 4.89026C13.9648 4.03521 14.4461 3.2588 15.201 2.86406C18.4647 1.01082 22.1449 0.0250564 25.8933 0Z" fill="#382E60"/>
</svg>
