<?xml version="1.0" encoding="utf-8"?>
<!-- Generator: Adobe Illustrator 25.0.0, SVG Export Plug-In . SVG Version: 6.00 Build 0)  -->
<svg version="1.1" id="Layer_1" xmlns="http://www.w3.org/2000/svg" xmlns:xlink="http://www.w3.org/1999/xlink" x="0px" y="0px"
	 width="50px" height="50px" viewBox="0 0 50 50" enable-background="new 0 0 50 50" xml:space="preserve">
<g>
	<path fill="#D268CC" d="M11.905,0h26.19C44.67,0,50,5.33,50,11.905v26.19C50,44.67,44.67,50,38.095,50h-26.19
		C5.33,50,0,44.67,0,38.095v-26.19C0,5.33,5.33,0,11.905,0z"/>
	<path fill-rule="evenodd" clip-rule="evenodd" fill="#FFFFFF" d="M14.051,25.236c0.137,0.716,0.776,1.225,1.505,1.198h16.007
		l-0.428,0.192c-0.263,0.135-0.504,0.311-0.714,0.52l-3.937,3.95c-0.519,0.495-0.607,1.293-0.207,1.889
		c0.038,0.049,0.079,0.096,0.122,0.14c0.556,0.558,1.459,0.559,2.017,0.003l7.132-7.13l0,0c0,0,0,0,0.001-0.001
		c0.557-0.557,0.556-1.46-0.001-2.016l-7.132-7.129c-0.046-0.044-0.094-0.085-0.146-0.123c0,0,0,0,0,0
		c-0.636-0.466-1.529-0.327-1.994,0.308c-0.4,0.596-0.312,1.393,0.207,1.889l3.944,3.944c0.233,0.236,0.506,0.429,0.806,0.57
		l0.306,0.143H15.477c-0.083-0.001-0.165,0.005-0.247,0.018C14.453,23.729,13.926,24.46,14.051,25.236z"/>
</g>
</svg>
