<?xml version="1.0" encoding="utf-8"?>
<!-- Generator: Adobe Illustrator 25.0.0, SVG Export Plug-In . SVG Version: 6.00 Build 0)  -->
<svg version="1.1" id="Layer_1" xmlns="http://www.w3.org/2000/svg" xmlns:xlink="http://www.w3.org/1999/xlink" x="0px" y="0px"
	 width="50px" height="47.183px" viewBox="0 0 50 47.183" enable-background="new 0 0 50 47.183" xml:space="preserve">
<g id="Forma_1_1_">
	<g>
		<path fill="#505763" d="M49.711,22.841L38.6,12.714c-0.309-0.251-0.646-0.299-1.013-0.145c-0.367,0.154-0.55,0.434-0.55,0.839
			v6.482H0.926c-0.27,0-0.492,0.087-0.666,0.26C0.087,20.324,0,20.546,0,20.816v5.556c0,0.27,0.087,0.492,0.26,0.665
			c0.174,0.173,0.396,0.26,0.666,0.26h36.111v6.481c0,0.386,0.184,0.666,0.55,0.839c0.367,0.155,0.704,0.096,1.013-0.173
			L49.711,24.2C49.904,24.008,50,23.777,50,23.506C50,23.256,49.904,23.034,49.711,22.841z"/>
	</g>
</g>
</svg>
