<?xml version="1.0" encoding="utf-8"?>
<!-- Generator: Adobe Illustrator 25.0.0, SVG Export Plug-In . SVG Version: 6.00 Build 0)  -->
<svg version="1.1" id="Layer_1" xmlns="http://www.w3.org/2000/svg" xmlns:xlink="http://www.w3.org/1999/xlink" x="0px" y="0px"
	 width="50px" height="47.183px" viewBox="0 0 50 47.183" enable-background="new 0 0 50 47.183" xml:space="preserve">
<g>
	<path fill-rule="evenodd" clip-rule="evenodd" fill="#009DE2" d="M4.363,20.385H7.78c1.834,0,2.525,0.929,2.419,2.295
		c-0.176,2.253-1.538,3.498-3.345,3.498H5.942c-0.248,0-0.414,0.164-0.482,0.608L5.069,29.37c-0.025,0.168-0.114,0.266-0.246,0.278
		H2.68c-0.202,0-0.273-0.154-0.221-0.488l1.308-8.284C3.82,20.544,4.002,20.385,4.363,20.385z"/>
	<path fill-rule="evenodd" clip-rule="evenodd" fill="#113984" d="M19.196,20.232c1.153,0,2.217,0.625,2.071,2.184
		c-0.173,1.848-1.169,2.877-2.735,2.881h-1.367c-0.197,0-0.292,0.16-0.343,0.49l-0.264,1.682c-0.04,0.254-0.17,0.379-0.363,0.379
		h-1.273c-0.203,0-0.274-0.13-0.229-0.42l1.052-6.742c0.052-0.332,0.179-0.455,0.403-0.455H19.196L19.196,20.232z M17.123,23.841
		l1.037,0c0.648-0.024,1.079-0.473,1.122-1.283c0.027-0.5-0.311-0.858-0.849-0.855l-0.976,0.004L17.123,23.841L17.123,23.841z
		 M24.726,27.332c0.116-0.105,0.235-0.161,0.218-0.03l-0.041,0.312c-0.022,0.163,0.043,0.25,0.195,0.25h1.131
		c0.19,0,0.283-0.077,0.33-0.371l0.697-4.373c0.035-0.22-0.018-0.328-0.185-0.328h-1.243c-0.112,0-0.166,0.063-0.196,0.234
		l-0.046,0.269c-0.024,0.141-0.088,0.165-0.148,0.023c-0.211-0.5-0.749-0.723-1.503-0.708c-1.744,0.036-2.92,1.36-3.045,3.057
		c-0.097,1.313,0.844,2.343,2.083,2.343C23.871,28.011,24.273,27.743,24.726,27.332L24.726,27.332z M23.78,26.66
		c-0.751,0-1.274-0.599-1.165-1.333c0.109-0.734,0.811-1.333,1.561-1.333c0.751,0,1.274,0.599,1.165,1.333
		C25.232,26.062,24.531,26.66,23.78,26.66L23.78,26.66z M29.469,22.778h-1.142c-0.237,0-0.333,0.173-0.258,0.393l1.423,4.168
		l-1.403,1.983c-0.117,0.165-0.027,0.317,0.138,0.317h1.289c0.192,0,0.286-0.049,0.383-0.188l4.378-6.28
		c0.135-0.193,0.071-0.396-0.15-0.396l-1.218-0.001c-0.209,0-0.293,0.083-0.413,0.257l-1.826,2.649l-0.812-2.654
		C29.808,22.863,29.689,22.778,29.469,22.778z"/>
	<path fill-rule="evenodd" clip-rule="evenodd" fill="#009DE2" d="M38.834,20.232c1.153,0,2.217,0.625,2.071,2.184
		c-0.173,1.848-1.169,2.877-2.735,2.881h-1.367c-0.197,0-0.292,0.16-0.343,0.49l-0.264,1.682c-0.04,0.254-0.17,0.379-0.363,0.379
		h-1.273c-0.203,0-0.274-0.13-0.229-0.42l1.052-6.742c0.052-0.332,0.179-0.455,0.403-0.455H38.834L38.834,20.232z M36.761,23.841
		l1.037,0c0.648-0.024,1.079-0.473,1.122-1.283c0.027-0.5-0.311-0.858-0.849-0.855l-0.976,0.004L36.761,23.841L36.761,23.841z
		 M44.364,27.332c0.116-0.105,0.235-0.161,0.218-0.03l-0.041,0.312c-0.022,0.163,0.043,0.25,0.195,0.25h1.131
		c0.19,0,0.283-0.077,0.33-0.371l0.697-4.373c0.035-0.22-0.018-0.328-0.185-0.328h-1.243c-0.112,0-0.166,0.063-0.196,0.234
		l-0.046,0.269c-0.024,0.141-0.088,0.165-0.148,0.023c-0.211-0.5-0.749-0.723-1.503-0.708c-1.744,0.036-2.92,1.36-3.045,3.057
		c-0.097,1.313,0.844,2.343,2.083,2.343C43.509,28.011,43.911,27.743,44.364,27.332L44.364,27.332z M43.418,26.66
		c-0.751,0-1.274-0.599-1.165-1.333c0.109-0.734,0.811-1.333,1.561-1.333c0.751,0,1.274,0.599,1.165,1.333
		C44.87,26.062,44.169,26.66,43.418,26.66L43.418,26.66z M48.633,27.872h-1.305c-0.104,0-0.176-0.081-0.16-0.181l1.148-7.263
		c0.016-0.099,0.113-0.181,0.217-0.181h1.305c0.104,0,0.176,0.081,0.16,0.181l-1.148,7.263
		C48.835,27.791,48.737,27.872,48.633,27.872z"/>
	<path fill-rule="evenodd" clip-rule="evenodd" fill="#113984" d="M2.226,17.534h3.42c0.963,0,2.106,0.031,2.87,0.705
		c0.511,0.45,0.779,1.168,0.717,1.938c-0.21,2.612-1.772,4.075-3.867,4.075H3.68c-0.287,0-0.477,0.19-0.558,0.706l-0.471,2.995
		c-0.031,0.194-0.115,0.309-0.268,0.323H0.275c-0.234,0-0.317-0.179-0.256-0.566l1.517-9.606
		C1.597,17.718,1.808,17.534,2.226,17.534z"/>
	<path fill-rule="evenodd" clip-rule="evenodd" fill="#172C70" d="M3.17,24.656l0.597-3.781c0.052-0.332,0.234-0.49,0.595-0.49H7.78
		c0.566,0,1.023,0.088,1.381,0.251c-0.343,2.324-1.847,3.616-3.816,3.616H3.658C3.436,24.253,3.27,24.366,3.17,24.656z"/>
</g>
</svg>
