<svg width="64" height="71" viewBox="0 0 64 71" fill="none" xmlns="http://www.w3.org/2000/svg">
<path d="M63.9995 12.3617C64 12.0765 63.9427 11.7942 63.8311 11.5318C63.7195 11.2693 63.5558 11.0321 63.35 10.8345L52.8134 0.619566C52.5539 0.363961 52.2336 0.178294 51.8826 0.079964C51.5316 -0.0183664 51.1614 -0.0261419 50.8065 0.0573657C50.4517 0.140873 50.1239 0.312931 49.8539 0.557416C49.5839 0.801901 49.3804 1.11081 49.2627 1.4552C49.2482 1.51283 47.3286 7.07412 41.8726 6.71393C40.1992 6.59765 38.5871 6.0385 37.202 5.09398C35.8169 4.14947 34.7088 2.85369 33.9919 1.33994C33.8317 0.947765 33.558 0.612176 33.2057 0.376067C32.8535 0.139959 32.4387 0.014056 32.0144 0.0144515H32C31.5762 0.0158597 31.162 0.140651 30.8082 0.37353C30.4544 0.606409 30.1764 0.937259 30.0082 1.32553C29.2951 2.84345 28.1884 4.14346 26.8028 5.09087C25.4172 6.03829 23.8029 6.59866 22.1274 6.71393C16.758 7.07412 14.8095 1.67131 14.7373 1.4552C14.6196 1.11081 14.4161 0.801901 14.1461 0.557416C13.8761 0.312931 13.5483 0.140873 13.1935 0.0573657C12.8386 -0.0261419 12.4684 -0.0183664 12.1174 0.079964C11.7664 0.178294 11.4461 0.363961 11.1866 0.619566L0.650049 10.8345C0.444184 11.0321 0.280515 11.2693 0.168892 11.5318C0.0572693 11.7942 6.20661e-07 12.0765 0.000533542 12.3617C-0.00597324 12.6485 0.0470958 12.9335 0.156398 13.1988C0.2657 13.4641 0.428866 13.704 0.635616 13.9033C5.21109 18.4848 4.63375 24.8674 1.81918 35.7882C-0.980956 46.6659 1.87691 61.5776 31.3505 70.8993C31.773 71.0336 32.227 71.0336 32.6495 70.8993C62.1231 61.5776 64.981 46.6659 62.1808 35.7882C59.3663 24.8674 58.7889 18.4848 63.3644 13.9033C63.5711 13.704 63.7343 13.4641 63.8436 13.1988C63.9529 12.9335 64.006 12.6485 63.9995 12.3617ZM34.1651 37.4307V46.2625C34.1651 46.8356 33.937 47.3853 33.5309 47.7906C33.1249 48.1959 32.5742 48.4236 32 48.4236C31.4258 48.4236 30.8751 48.1959 30.4691 47.7906C30.0631 47.3853 29.8349 46.8356 29.8349 46.2625V37.4307C28.4792 36.9243 27.3446 35.9587 26.6293 34.7024C25.914 33.4462 25.6633 31.9791 25.9211 30.5573C26.1789 29.1354 26.9288 27.849 28.0398 26.9227C29.1508 25.9964 30.5524 25.489 32 25.489C33.4476 25.489 34.8492 25.9964 35.9602 26.9227C37.0712 27.849 37.8211 29.1354 38.0789 30.5573C38.3367 31.9791 38.086 33.4462 37.3707 34.7024C36.6554 35.9587 35.5208 36.9243 34.1651 37.4307ZM33.8475 31.6677C33.8447 32.0318 33.7339 32.3869 33.5292 32.6883C33.3244 32.9897 33.0349 33.2238 32.6971 33.3612C32.3592 33.4985 31.9882 33.533 31.6308 33.4602C31.2734 33.3875 30.9455 33.2107 30.6886 32.9522C30.4317 32.6937 30.2571 32.3651 30.187 32.0078C30.1169 31.6505 30.1543 31.2804 30.2945 30.9443C30.4348 30.6081 30.6716 30.321 30.9751 30.1189C31.2786 29.9169 31.6352 29.8091 32 29.8091C32.2437 29.8095 32.485 29.8579 32.7099 29.9516C32.9348 30.0454 33.139 30.1825 33.3107 30.3552C33.4823 30.5279 33.6181 30.7327 33.7103 30.958C33.8024 31.1832 33.849 31.4244 33.8475 31.6677Z" fill="#382E60"/>
</svg>
