<?xml version="1.0" encoding="utf-8"?>
<!-- Generator: Adobe Illustrator 25.0.0, SVG Export Plug-In . SVG Version: 6.00 Build 0)  -->
<svg version="1.1" id="Layer_1" xmlns="http://www.w3.org/2000/svg" xmlns:xlink="http://www.w3.org/1999/xlink" x="0px" y="0px"
	 width="50px" height="47.183px" viewBox="0 0 50 47.183" enable-background="new 0 0 50 47.183" xml:space="preserve">
<g>
	<path fill="#02B9EF" d="M39.139,18.936c0.207-0.165,0.31-0.248,0.414-0.331c1.437-1.22,3.278-1.086,4.509,0.362
		c0.124,0.145,0.186,0.155,0.31,0.031c0.083-0.093,0.176-0.165,0.259-0.259c0.962-0.941,2.234-1.22,3.423-0.693
		c1.251,0.558,1.923,1.541,1.934,2.916c0.021,2.968,0.01,5.925,0.01,8.893c0,1.055-0.651,1.717-1.696,1.717
		c-0.414,0-0.827-0.031-1.241,0.01c-0.424,0.041-0.548-0.093-0.548-0.538c0.021-2.895,0.01-5.791,0.01-8.686
		c0-0.124,0-0.238,0-0.362c-0.01-0.672-0.279-0.951-0.92-0.982c-0.579-0.031-0.982,0.321-1.044,0.91c-0.01,0.134,0,0.279,0,0.414
		c0,2.503,0,4.995,0,7.497c0,1.096-0.631,1.737-1.727,1.727c-0.558-0.01-1.313,0.248-1.634-0.114
		c-0.279-0.31-0.093-1.044-0.093-1.593c0-2.565,0-5.14,0-7.704c0-0.91-0.589-1.375-1.355-1.065
		c-0.476,0.196-0.631,0.579-0.631,1.075c0.01,2.399,0,4.788,0,7.187c0,0.186,0,0.383,0,0.569c-0.031,1.003-0.672,1.634-1.665,1.644
		c-0.414,0.01-0.827-0.031-1.241,0.01c-0.445,0.041-0.579-0.083-0.569-0.558c0.021-4.064,0.01-8.128,0.01-12.202
		c0-0.176,0.01-0.341,0-0.517c-0.021-0.228,0.072-0.3,0.3-0.3c0.951,0.01,1.892,0.01,2.844,0c0.238,0,0.352,0.062,0.331,0.321
		C39.108,18.501,39.129,18.667,39.139,18.936z"/>
	<path fill="#06306F" d="M17.216,24.541c0,1.417,0,2.823,0,4.24c-0.01,1.841-0.972,2.792-2.813,2.802c-0.807,0-1.624,0.01-2.43,0
		c-1.634-0.021-2.833-1.106-2.916-2.74c-0.062-1.169-0.072-2.347-0.01-3.516c0.083-1.675,1.365-2.854,3.061-2.875
		c0.445-0.01,0.9,0,1.344,0c0.434-0.01,0.6-0.259,0.589-0.672c0-0.414-0.186-0.6-0.6-0.579c-0.465,0.01-0.931,0.01-1.396,0
		c-1.138-0.021-1.768-0.641-1.758-1.758c0-0.455-0.207-1.065,0.093-1.334c0.259-0.228,0.848-0.083,1.293-0.083
		c1.158-0.01,2.306,0,3.464,0c1.231,0,2.068,0.838,2.079,2.079C17.227,21.573,17.216,23.062,17.216,24.541z M14.052,26.888
		c0-0.176,0-0.341,0-0.517c0-1.055,0-1.055-1.055-1.013c-0.527,0.021-0.817,0.29-0.827,0.838c-0.01,0.434-0.01,0.858,0,1.293
		c0.01,0.745,0.341,0.941,1.417,0.972c0.796,0.021,0.393-0.538,0.465-0.848C14.093,27.384,14.042,27.126,14.052,26.888z"/>
	<path fill="#06306F" d="M26.42,23.413c0,1.582,0.021,3.175-0.01,4.757c-0.021,1.22-0.31,2.327-1.489,2.978
		c-0.476,0.259-0.993,0.403-1.53,0.414c-1.189,0.021-2.378,0-3.568,0.021c-0.29,0-0.352-0.103-0.341-0.362
		c0.021-0.434-0.01-0.858,0.01-1.293c0.021-0.827,0.651-1.458,1.479-1.489c0.538-0.021,1.065-0.01,1.603,0
		c0.434,0,0.672-0.176,0.672-0.641c0-0.476-0.228-0.641-0.662-0.651c-0.724-0.021-1.448,0.083-2.161-0.124
		c-1.231-0.362-2.13-1.386-2.161-2.658c-0.062-2.017-0.021-4.033-0.031-6.05c0-0.228,0.072-0.3,0.3-0.29
		c0.848,0.01,1.686,0.021,2.534,0c0.372-0.01,0.321,0.196,0.321,0.424c0,1.52,0,3.03,0,4.55c0,0.662,0.31,1.013,0.889,1.034
		c0.683,0.021,0.982-0.259,0.982-0.951c0-1.53,0.01-3.071-0.01-4.602c0-0.362,0.093-0.465,0.455-0.455
		c0.755,0.031,1.52,0.041,2.275,0c0.414-0.021,0.476,0.134,0.465,0.496C26.409,20.146,26.42,21.78,26.42,23.413z"/>
	<path fill="#06306F" d="M0.071,25.761c0-1.686,0-3.382,0-5.067c0-1.655,1.013-2.689,2.678-2.668
		c1.086,0.01,2.172-0.124,3.247,0.083c1.375,0.269,2.244,1.334,2.254,2.751c0.01,1.499,0,2.999,0,4.498
		c0,1.882-1.106,3.03-2.989,3.082c-0.569,0.021-1.138,0.01-1.706,0c-0.259-0.01-0.372,0.072-0.362,0.352
		c0.021,0.414,0.01,0.827,0,1.241c-0.021,0.889-0.651,1.53-1.53,1.541c-0.517,0.01-1.169,0.217-1.499-0.083
		c-0.31-0.279-0.083-0.941-0.093-1.437C0.06,28.625,0.071,27.188,0.071,25.761z M3.194,23.227c0,0.331,0,0.651,0,0.982
		c0,1.169,0,1.169,1.169,1.065c0.507-0.041,0.745-0.29,0.755-0.796c0.01-0.579-0.021-1.169,0.01-1.748
		c0.062-1.675-0.248-1.51-1.613-1.52c-0.248,0-0.331,0.072-0.331,0.321C3.204,22.09,3.194,22.659,3.194,23.227z"/>
	<path fill="#02B9EF" d="M29.346,25.782c0-1.375-0.01-2.761,0.01-4.136c0-0.321-0.072-0.455-0.424-0.445
		c-0.465,0.021-1.086,0.155-1.344-0.072c-0.321-0.3-0.072-0.941-0.114-1.437c0-0.031,0-0.072,0-0.103
		c0-0.486-0.155-1.055,0.052-1.417c0.207-0.362,0.838-0.134,1.282-0.248c0.879-0.228,1.541-0.734,2.079-1.437
		c0.372-0.476,0.838-0.817,1.437-0.931c0.321-0.062,0.517-0.021,0.496,0.393c-0.031,0.579,0,1.169-0.01,1.758
		c-0.01,0.248,0.083,0.331,0.331,0.321c0.414-0.01,0.827,0.01,1.241-0.01c0.248-0.01,0.331,0.083,0.321,0.331
		c-0.01,0.848-0.01,1.686,0,2.534c0,0.238-0.062,0.362-0.321,0.331c-0.052-0.01-0.103,0-0.155,0
		c-0.455,0.041-1.086-0.207-1.324,0.103c-0.228,0.29-0.083,0.889-0.083,1.355c0,2.813-0.01,5.615,0.01,8.428
		c0,0.393-0.103,0.517-0.496,0.486c-0.372-0.031-0.755,0-1.138-0.01c-1.117-0.041-1.851-0.796-1.851-1.913
		C29.346,28.367,29.346,27.074,29.346,25.782z"/>
</g>
</svg>
