<?xml version="1.0" encoding="utf-8"?>
<!-- Generator: Adobe Illustrator 25.0.0, SVG Export Plug-In . SVG Version: 6.00 Build 0)  -->
<svg version="1.1" id="Layer_1" xmlns="http://www.w3.org/2000/svg" xmlns:xlink="http://www.w3.org/1999/xlink" x="0px" y="0px"
	 width="50px" height="47.183px" viewBox="0 0 50 47.183" enable-background="new 0 0 50 47.183" xml:space="preserve">
<g>
	<path fill="#31C8AC" d="M39.825,24.013v2.813c0,0.25-0.063,0.313-0.313,0.313h-0.125c-0.25,0-0.313-0.062-0.313-0.313v-2.813
		c0-0.75-0.25-1.157-1.313-1.157c-1.063,0-1.313,0.438-1.313,1.157v2.813c0,0.25-0.062,0.313-0.313,0.313h-0.094
		c-0.25,0-0.313-0.062-0.313-0.313v-2.813c0-1.125,0.594-1.844,2.063-1.844C39.293,22.169,39.856,22.857,39.825,24.013z"/>
	<path fill="#31C8AC" d="M49.952,22.575l-1.125,4.564c-0.313,1.25-0.907,2.032-1.969,2.094c-0.219,0-0.281-0.031-0.344-0.281
		l-0.031-0.094c-0.063-0.219,0-0.25,0.25-0.281c0.75-0.094,1.094-0.625,1.344-1.5c-0.125,0.062-0.313,0.094-0.5,0.094
		c-0.688,0-0.907-0.469-1.094-1.157l-0.938-3.439c-0.063-0.25,0-0.313,0.25-0.313h0.094c0.281,0,0.375,0.063,0.438,0.313
		l0.938,3.407c0.125,0.438,0.281,0.531,0.594,0.531c0.281,0,0.469-0.094,0.563-0.531l0.813-3.407
		c0.063-0.25,0.156-0.313,0.406-0.313h0.094C50.015,22.263,50.046,22.325,49.952,22.575z"/>
	<path fill="#31C8AC" d="M32.541,22.169c-1.563,0-2.157,0.781-2.157,2.063v0.907c0,1.313,0.594,2.063,2.157,2.063
		c1.532,0,2.157-0.781,2.157-2.063v-0.907C34.698,22.919,34.104,22.169,32.541,22.169z M33.948,25.17
		c0,0.875-0.281,1.375-1.407,1.375c-1.125,0-1.438-0.5-1.438-1.375v-0.906c0-0.907,0.281-1.375,1.438-1.375
		c1.125,0,1.407,0.469,1.407,1.375V25.17z"/>
	<path fill="#31C8AC" d="M29.259,24.013v2.813c0,0.25-0.062,0.313-0.313,0.313h-0.094c-0.25,0-0.313-0.062-0.313-0.313v-2.813
		c0-0.75-0.219-1.157-1.125-1.157c-0.938,0-1.157,0.438-1.157,1.157v2.813c0,0.25-0.063,0.313-0.313,0.313h-0.094
		c-0.25,0-0.313-0.062-0.313-0.313v-2.813c0-0.75-0.219-1.157-1.125-1.157c-0.875,0-1.125,0.438-1.125,1.157v2.813
		c0,0.25-0.063,0.313-0.313,0.313h-0.094c-0.25,0-0.313-0.062-0.313-0.313v-2.813c0-1.125,0.531-1.844,1.876-1.844
		c0.844,0,1.282,0.313,1.5,0.813c0.219-0.5,0.688-0.813,1.5-0.813C28.821,22.169,29.321,22.857,29.259,24.013z"/>
	<path fill="#31C8AC" d="M42.982,22.169c-1.563,0-2.063,0.875-2.063,2.094v0.906c0,1.469,0.75,2.063,2.282,2.063
		c0.594,0,1.032-0.094,1.344-0.188c0.281-0.094,0.313-0.156,0.313-0.344v-0.094c0-0.25-0.063-0.313-0.313-0.25
		c-0.219,0.063-0.75,0.188-1.344,0.188c-1.063,0-1.532-0.344-1.532-1.25v-0.281h2.97c0.25,0,0.313-0.063,0.344-0.313
		c0.031-0.125,0.031-0.344,0.031-0.531C45.014,22.826,44.263,22.169,42.982,22.169z M44.295,24.357h-2.657v-0.313
		c0-0.875,0.5-1.219,1.313-1.219c0.813,0,1.313,0.344,1.313,1.219v0.313H44.295z"/>
	<path fill="#31C8AC" d="M22.569,20.106c0,0.094-0.094,0.188-0.188,0.188h-1c-0.094,0-0.188-0.094-0.188-0.188v-1
		c0-0.094,0.094-0.188,0.188-0.188h1c0.094,0,0.188,0.094,0.188,0.188V20.106z"/>
	<path fill="#31C8AC" d="M20.35,17.949h0.688c0.063,0,0.125,0.062,0.125,0.125v0.688c0,0.063-0.063,0.125-0.125,0.125H20.35
		c-0.063,0-0.125-0.063-0.125-0.125v-0.688C20.225,18.012,20.287,17.949,20.35,17.949"/>
	<path fill="#31C8AC" d="M2.563,20.762H1.125C0.344,20.762,0,21.106,0,21.888v4.97c0,0.313,0.094,0.406,0.406,0.406H0.5
		c0.313,0,0.406-0.094,0.406-0.406V24.92h1.688c1.5,0,2.188-0.656,2.188-2.094C4.751,21.419,4.064,20.762,2.563,20.762z
		 M2.563,24.107H0.875v-2.094c0-0.281,0.094-0.406,0.406-0.406h1.282c0.813,0,1.313,0.219,1.313,1.25
		C3.876,23.638,3.657,24.107,2.563,24.107z"/>
	<path fill="#31C8AC" d="M6.627,22.2c-0.563,0-0.938,0.063-1.063,0.094C5.314,22.357,5.22,22.419,5.22,22.7v0.094
		c0,0.094,0.031,0.188,0.062,0.25c0.031,0.063,0.094,0.094,0.188,0.094c0.031,0,0.094,0,0.156-0.031
		c0.125-0.031,0.594-0.094,1.063-0.094c0.875,0,1.219,0.25,1.219,0.844v0.531H6.815c-1.407,0-2.063,0.469-2.063,1.5
		c0,1,0.688,1.532,1.907,1.532c1.469,0,2.126-0.5,2.126-1.626v-1.938C8.753,22.7,8.065,22.2,6.627,22.2z M7.909,25.701
		c0,0.563-0.219,0.875-1.25,0.875c-0.688,0-1.032-0.25-1.032-0.781c0-0.563,0.344-0.781,1.219-0.781H7.94v0.688H7.909z"/>
	<path fill="#31C8AC" d="M13.535,22.388c0.063,0.094,0.063,0.188,0.031,0.313l-1.125,4.501c-0.313,1.344-0.875,1.907-1.938,1.969
		c0,0-0.031,0-0.063,0c-0.219,0-0.313-0.125-0.344-0.313l-0.031-0.094c0-0.094-0.031-0.219,0.031-0.281
		c0.031-0.063,0.125-0.094,0.281-0.094c0.719-0.062,0.938-0.375,1.188-1.125c-0.094,0.031-0.219,0.063-0.375,0.063
		c-0.781,0-0.969-0.531-1.157-1.188l-0.938-3.407c-0.031-0.125-0.063-0.219,0-0.313c0.031-0.094,0.156-0.094,0.281-0.094h0.125
		c0.281,0,0.406,0.094,0.469,0.375l0.907,3.376c0.125,0.438,0.219,0.5,0.531,0.5c0.25,0,0.406-0.094,0.5-0.5l0.813-3.376
		c0.062-0.281,0.188-0.375,0.469-0.375h0.094C13.379,22.325,13.504,22.357,13.535,22.388z"/>
	<path fill="#31C8AC" d="M21.131,20.575v1.375c0,0.125-0.094,0.25-0.25,0.25l0,0h-0.688v2.626c0,0.563-0.125,1.032-0.375,1.407
		c-0.438,0.75-1.344,1.125-2.626,1.125l0,0l0,0c-1.25,0-2.157-0.406-2.626-1.125c-0.25-0.375-0.375-0.844-0.375-1.407v-3.407
		c0-0.563,0.25-0.656,0.844-0.656h0.188c0.625,0,0.844,0.094,0.844,0.656V22.7l0,0v0.281v0.031v1.813
		c0,0.219,0.031,0.406,0.125,0.531c0.188,0.25,0.5,0.375,1.032,0.375c0.531,0,0.875-0.125,1.032-0.375
		c0.094-0.125,0.125-0.313,0.125-0.531v-1.844v-0.031v-0.281l0,0v-1.282c0-0.563,0.25-0.656,0.844-0.656h0.094v-0.188
		c0-0.125,0.094-0.25,0.25-0.25l0,0h1.344C21.038,20.294,21.163,20.419,21.131,20.575z"/>
</g>
</svg>
