<?xml version="1.0" encoding="utf-8"?>
<!-- Generator: Adobe Illustrator 25.0.0, SVG Export Plug-In . SVG Version: 6.00 Build 0)  -->
<svg version="1.1" id="Layer_1" xmlns="http://www.w3.org/2000/svg" xmlns:xlink="http://www.w3.org/1999/xlink" x="0px" y="0px"
	 width="50px" height="50px" viewBox="0 0 50 50" enable-background="new 0 0 50 50" xml:space="preserve">
<g>
	<path fill-rule="evenodd" clip-rule="evenodd" fill="#F3A344" d="M49.865,19.119c-0.324-1.015-1.224-1.737-2.285-1.834
		l-14.434-1.317L27.448,2.55c-0.57-1.35-2.126-1.983-3.476-1.413c-0.637,0.269-1.144,0.776-1.413,1.413l-5.705,13.419L2.418,17.285
		c-1.471,0.143-2.548,1.451-2.405,2.922c0.066,0.676,0.385,1.301,0.895,1.75l10.911,9.612L8.601,45.807
		c-0.237,1.043,0.169,2.127,1.033,2.757c0.86,0.629,2.014,0.68,2.926,0.129l12.447-7.476l12.443,7.476
		c0.912,0.55,2.066,0.499,2.926-0.129c0.864-0.63,1.27-1.714,1.033-2.757L38.193,31.57l10.911-9.612
		C49.9,21.248,50.199,20.133,49.865,19.119z"/>
</g>
</svg>
