<?xml version="1.0" encoding="utf-8"?>
<!-- Generator: Adobe Illustrator 25.0.0, SVG Export Plug-In . SVG Version: 6.00 Build 0)  -->
<svg version="1.1" id="Layer_1" xmlns="http://www.w3.org/2000/svg" xmlns:xlink="http://www.w3.org/1999/xlink" x="0px" y="0px"
	 width="50px" height="47.183px" viewBox="0 0 50 47.183" enable-background="new 0 0 50 47.183" xml:space="preserve">
<g id="Group_1_">
	<path id="Fill-1_1_" fill-rule="evenodd" clip-rule="evenodd" fill="#072654" d="M11.904,22.296
		c-0.079,0.294-0.232,0.51-0.459,0.648c-0.227,0.138-0.546,0.207-0.957,0.207H9.182l0.458-1.711h1.306
		c0.411,0,0.693,0.069,0.846,0.207C11.946,21.786,11.983,22.002,11.904,22.296 M13.257,22.259c0.166-0.619,0.097-1.094-0.206-1.425
		c-0.304-0.331-0.836-0.497-1.596-0.497H8.539l-1.755,6.548h1.416l0.707-2.64h0.929c0.208,0,0.372,0.034,0.492,0.101
		c0.12,0.068,0.191,0.187,0.212,0.359l0.253,2.18h1.518l-0.246-2.032c-0.05-0.454-0.258-0.72-0.623-0.8
		c0.465-0.135,0.855-0.359,1.169-0.672C12.925,23.069,13.14,22.695,13.257,22.259"/>
	<path id="Fill-3_1_" fill-rule="evenodd" clip-rule="evenodd" fill="#072654" d="M16.699,24.54
		c-0.118,0.441-0.301,0.779-0.547,1.012c-0.246,0.233-0.541,0.349-0.885,0.349c-0.35,0-0.587-0.115-0.712-0.345
		c-0.126-0.23-0.13-0.562-0.013-0.998c0.117-0.435,0.302-0.775,0.558-1.021c0.256-0.245,0.555-0.368,0.899-0.368
		c0.343,0,0.576,0.118,0.696,0.354C16.816,23.76,16.817,24.099,16.699,24.54L16.699,24.54z M17.32,22.222l-0.177,0.662
		c-0.077-0.239-0.225-0.429-0.445-0.57c-0.22-0.141-0.492-0.212-0.817-0.212c-0.399,0-0.782,0.103-1.149,0.308
		c-0.368,0.206-0.689,0.495-0.964,0.869c-0.275,0.374-0.477,0.8-0.605,1.278c-0.128,0.478-0.154,0.9-0.077,1.265
		c0.077,0.365,0.244,0.645,0.501,0.842c0.257,0.196,0.588,0.294,0.993,0.294c0.325,0,0.634-0.067,0.928-0.202
		c0.294-0.135,0.543-0.322,0.748-0.561l-0.185,0.69h1.37l1.249-4.663H17.32z"/>
	<path fill-rule="evenodd" clip-rule="evenodd" fill="#072654" d="M23.366,23.161l-3.111,2.686h2.483l-0.279,1.039h-4.111
		l0.262-0.975l3.064-2.649h-2.317l0.278-1.039h3.982L23.366,23.161z"/>
	<path id="Fill-7_1_" fill-rule="evenodd" clip-rule="evenodd" fill="#072654" d="M27.123,24.531
		c-0.123,0.46-0.306,0.803-0.547,1.03c-0.242,0.227-0.534,0.34-0.877,0.34c-0.718,0-0.954-0.456-0.709-1.37
		c0.122-0.454,0.305-0.796,0.551-1.025c0.246-0.23,0.543-0.345,0.892-0.345c0.343,0,0.575,0.115,0.694,0.345
		C27.246,23.735,27.245,24.077,27.123,24.531 M27.925,22.397c-0.315-0.196-0.718-0.294-1.209-0.294c-0.497,0-0.957,0.098-1.38,0.294
		c-0.424,0.196-0.784,0.478-1.082,0.846c-0.298,0.368-0.513,0.797-0.644,1.288c-0.132,0.491-0.147,0.92-0.046,1.287
		c0.101,0.368,0.31,0.65,0.629,0.846c0.318,0.196,0.726,0.294,1.223,0.294c0.491,0,0.946-0.098,1.367-0.294
		c0.42-0.196,0.779-0.478,1.077-0.846c0.298-0.368,0.512-0.797,0.644-1.287c0.132-0.491,0.147-0.92,0.046-1.288
		C28.448,22.875,28.24,22.593,27.925,22.397"/>
	<path id="Fill-9_1_" fill-rule="evenodd" clip-rule="evenodd" fill="#072654" d="M42.257,24.54
		c-0.118,0.441-0.301,0.779-0.547,1.012c-0.246,0.233-0.542,0.349-0.885,0.349c-0.349,0-0.587-0.115-0.712-0.345
		c-0.126-0.23-0.13-0.562-0.013-0.998c0.117-0.435,0.302-0.775,0.558-1.021c0.256-0.245,0.555-0.368,0.899-0.368
		c0.343,0,0.576,0.118,0.696,0.354C42.374,23.76,42.375,24.099,42.257,24.54L42.257,24.54z M42.878,22.222L42.7,22.885
		c-0.077-0.239-0.225-0.429-0.445-0.57c-0.22-0.141-0.492-0.212-0.817-0.212c-0.399,0-0.782,0.103-1.149,0.308
		c-0.368,0.206-0.689,0.495-0.964,0.869c-0.275,0.374-0.477,0.8-0.605,1.278c-0.128,0.478-0.154,0.9-0.077,1.265
		c0.077,0.365,0.244,0.645,0.501,0.842c0.257,0.196,0.588,0.294,0.993,0.294c0.325,0,0.634-0.067,0.928-0.202
		c0.294-0.135,0.543-0.322,0.748-0.561l-0.185,0.69h1.37l1.249-4.663H42.878z"/>
	<path fill-rule="evenodd" clip-rule="evenodd" fill="#072654" d="M32.81,23.473c-0.199-0.104-0.412-0.156-0.639-0.156
		c-0.368,0-0.675,0.1-0.922,0.299c-0.247,0.199-0.417,0.477-0.513,0.832l-0.653,2.437h-1.389l1.259-4.663h0.973l0.397-0.001
		l-0.182,0.683c0.179-0.236,0.391-0.424,0.641-0.559c0.29-0.156,0.592-0.235,0.904-0.235c0.196,0,0.353,0.031,0.472,0.092
		L32.81,23.473"/>
	<path id="Fill-13_1_" fill-rule="evenodd" clip-rule="evenodd" fill="#072654" d="M36.677,24.558
		c-0.117,0.436-0.298,0.768-0.543,0.998c-0.246,0.23-0.54,0.345-0.883,0.345c-0.343,0-0.577-0.116-0.702-0.349
		c-0.125-0.233-0.128-0.57-0.009-1.012c0.118-0.441,0.302-0.78,0.553-1.016c0.25-0.236,0.547-0.354,0.891-0.354
		c0.337,0,0.566,0.123,0.688,0.368C36.791,23.783,36.794,24.123,36.677,24.558 M37.648,22.411c-0.258-0.205-0.586-0.308-0.984-0.308
		c-0.35,0-0.682,0.08-0.997,0.239c-0.316,0.16-0.572,0.377-0.768,0.653l0.004-0.031l0.233-0.743h-0.269v0.001H33.78l-0.345,1.289
		c-0.004,0.015-0.007,0.029-0.011,0.044l-1.424,5.316h1.389l0.717-2.676c0.07,0.239,0.217,0.426,0.438,0.561
		c0.221,0.135,0.495,0.202,0.82,0.202c0.405,0,0.789-0.098,1.155-0.294c0.365-0.196,0.683-0.477,0.952-0.842
		c0.269-0.365,0.468-0.786,0.596-1.265c0.128-0.478,0.155-0.904,0.08-1.278C38.072,22.906,37.905,22.616,37.648,22.411"/>
	<path fill-rule="evenodd" clip-rule="evenodd" fill="#072654" d="M50,22.224l-0.002,0.002l-1.733,2.454l-2.057,2.916l-0.013,0.019
		l-0.46,0.652c-0.012,0.018-0.022,0.031-0.034,0.048l-0.394,0.558h-0.572h-0.83h-0.046l1.625-2.252l-0.736-4.398h1.453l0.368,2.894
		l1.774-2.471l0.024-0.036c0.019-0.027,0.037-0.051,0.055-0.074l0.223-0.311h0.437c0.025-0.001,0.048-0.001,0.075-0.001H50V22.224
		L50,22.224z"/>
	<path fill-rule="evenodd" clip-rule="evenodd" fill="#3395FF" d="M7.501,18.311l-2.298,8.574l-1.58-0.001l1.556-5.805l-2.379,1.539
		l0.416-1.53L7.501,18.311z"/>
	<path fill-rule="evenodd" clip-rule="evenodd" fill="#072654" d="M0.654,24.445c0,0,3.908-2.524,3.909-2.524
		c0,0.001-1.325,4.965-1.325,4.965H0L0.654,24.445"/>
</g>
</svg>
