<?xml version="1.0" encoding="utf-8"?>
<!-- Generator: Adobe Illustrator 16.0.0, SVG Export Plug-In . SVG Version: 6.00 Build 0)  -->
<!DOCTYPE svg PUBLIC "-//W3C//DTD SVG 1.1//EN" "http://www.w3.org/Graphics/SVG/1.1/DTD/svg11.dtd">
<svg version="1.1" id="Layer_1" xmlns="http://www.w3.org/2000/svg" xmlns:xlink="http://www.w3.org/1999/xlink" x="0px" y="0px"
	 width="50px" height="50px" viewBox="0 0 50 50" enable-background="new 0 0 50 50" xml:space="preserve">
<path fill="#4A3D70" d="M45.628,50c-0.764-0.018-1.495-0.335-2.044-0.887L32.367,37.189c0.164-0.129,0.326-0.276,0.489-0.411
	c0.166-0.129,0.284-0.223,0.422-0.347c0.485-0.411,0.958-0.84,1.406-1.304c0.453-0.465,0.862-0.935,1.263-1.434
	c0.122-0.147,0.234-0.294,0.352-0.441c0.116-0.152,0.263-0.329,0.39-0.499l11.213,11.911l0.006,0.018
	c0.552,0.587,0.849,1.381,0.833,2.198C48.706,48.636,47.311,50.035,45.628,50L45.628,50z M20.213,39.558
	c-10.466,0-18.954-8.849-18.955-19.773C1.255,8.861,9.737,0.006,20.2,0c0.004,0,0.007,0,0.013,0c10.462,0,18.941,8.85,18.941,19.773
	C39.157,30.69,30.678,39.552,20.213,39.558L20.213,39.558z"/>
</svg>
