<?xml version="1.0" encoding="utf-8"?>
<!-- Generator: Adobe Illustrator 25.0.0, SVG Export Plug-In . SVG Version: 6.00 Build 0)  -->
<svg version="1.1" id="Layer_1" xmlns="http://www.w3.org/2000/svg" xmlns:xlink="http://www.w3.org/1999/xlink" x="0px" y="0px"
	 width="50px" height="47.183px" viewBox="0 0 50 47.183" enable-background="new 0 0 50 47.183" xml:space="preserve">
<g>
	<path fill-rule="evenodd" clip-rule="evenodd" fill="#097939" d="M46.608,16.751L50,23.509l-7.161,6.533L46.608,16.751z"/>
	<path fill-rule="evenodd" clip-rule="evenodd" fill="#ED752E" d="M44.196,16.751l3.392,6.758l-7.161,6.533L44.196,16.751z"/>
	<path fill-rule="evenodd" clip-rule="evenodd" fill="#747474" d="M6.205,16.827L3.189,27.564l10.704,0.075l2.94-10.813h2.714
		l-3.525,12.57c-0.135,0.48-0.649,0.87-1.148,0.87H1.154c-0.832,0-1.325-0.65-1.1-1.45l3.362-11.99L6.205,16.827z M39.296,16.752
		h2.714L38.24,30.267h-2.79L39.296,16.752z M19.849,22.383l13.568-0.075l0.905-2.854H20.527l0.829-2.628l14.7-0.135
		c0.915-0.008,1.46,0.7,1.219,1.584l-1.385,5.062c-0.242,0.883-1.18,1.599-2.095,1.599H21.658l-1.431,5.557h-2.64L19.849,22.383z"/>
</g>
</svg>
