<?xml version="1.0" encoding="utf-8"?>
<!-- Generator: Adobe Illustrator 25.0.0, SVG Export Plug-In . SVG Version: 6.00 Build 0)  -->
<svg version="1.1" id="Layer_1" xmlns="http://www.w3.org/2000/svg" xmlns:xlink="http://www.w3.org/1999/xlink" x="0px" y="0px"
	 width="50px" height="50px" viewBox="0 0 50 50" enable-background="new 0 0 50 50" xml:space="preserve">
<g>
	<path id="Forma_1_copy_3" fill-rule="evenodd" clip-rule="evenodd" fill="#F3A344" d="M25,0C11.193,0,0,11.193,0,25
		c0,13.807,11.193,25,25,25s25-11.193,25-25l0,0C50,11.193,38.807,0,25,0z M35.529,25.797c-0.173,0.347-0.455,0.628-0.801,0.802
		v0.009l-14.286,7.144c-0.882,0.441-1.954,0.084-2.395-0.798c-0.126-0.251-0.19-0.529-0.189-0.81V17.858
		c0-0.987,0.8-1.786,1.787-1.786c0.277,0,0.549,0.064,0.797,0.188l14.286,7.144c0.881,0.44,1.239,1.51,0.801,2.392V25.797z"/>
</g>
</svg>
