<?xml version="1.0" encoding="utf-8"?>
<!-- Generator: Adobe Illustrator 25.0.0, SVG Export Plug-In . SVG Version: 6.00 Build 0)  -->
<svg version="1.1" id="Layer_1" xmlns="http://www.w3.org/2000/svg" xmlns:xlink="http://www.w3.org/1999/xlink" x="0px" y="0px"
	 width="50px" height="50px" viewBox="0 0 50 50" enable-background="new 0 0 50 50" xml:space="preserve">
<path id="Forma_1-2" fill-rule="evenodd" clip-rule="evenodd" fill="#9553A0" d="M49.682,24.028
	c-0.447-0.611-11.09-14.952-24.683-14.952c-13.592,0-24.237,14.345-24.682,14.951c-0.423,0.579-0.423,1.365,0,1.945
	C0.763,26.583,11.407,40.924,25,40.924s24.236-14.341,24.683-14.952C50.106,25.393,50.106,24.607,49.682,24.028z M24.999,37.629
	C14.986,37.629,6.314,28.111,3.747,25c2.565-3.115,11.218-12.628,21.252-12.628c10.012,0,18.683,9.517,21.251,12.628
	C43.687,28.116,35.033,37.629,24.999,37.629z M24.999,15.116c-5.459,0.003-9.881,4.431-9.878,9.89
	c0.003,5.459,4.431,9.881,9.89,9.878c5.456-0.003,9.878-4.427,9.878-9.884C34.881,19.542,30.457,15.121,24.999,15.116z
	 M24.999,31.593c-3.639-0.002-6.588-2.954-6.586-6.594c0.002-3.639,2.954-6.588,6.593-6.586c3.637,0.002,6.584,2.95,6.586,6.587
	c-0.006,3.638-2.955,6.586-6.594,6.588V31.593z"/>
</svg>
